<?xml version="1.0" encoding="UTF-8" standalone="no"?>
<svg width="80px" height="80px" viewBox="0 0 80 80" version="1.1" xmlns="http://www.w3.org/2000/svg" xmlns:xlink="http://www.w3.org/1999/xlink">
    <!-- Generator: Sketch 3.6.1 (26313) - http://www.bohemiancoding.com/sketch -->
    <title>Group</title>
    <desc>Created with Sketch.</desc>
    <defs></defs>
    <g id="Page-1" stroke="none" stroke-width="1" fill="none" fill-rule="evenodd">
        <g id="Group" transform="translate(5.000000, 8.000000)" fill="#000000">
            <path id="Shape" d="M37.0169729,46.713 C37.0169729,46.71 37.0189729,46.706 37.0189729,46.703 C37.0029729,46.706 36.9979729,46.709 37.0169729,46.713 L37.0169729,46.713 Z"></path>
            <path d="M1.84765432,36.211 L24.2675309,62.155 C26.1964198,64.386 29.3248148,64.386 31.2511111,62.155 C33.18,59.925 33.18,56.305 31.2511111,54.073 L17.2623457,37.885 L64.7240741,37.885 C67.4514815,37.885 69.662963,35.326 69.662963,32.17 C69.662963,29.014 67.4514815,26.455 64.7240741,26.455 L17.2623457,26.455 L31.2519753,10.267 C33.1808642,8.037 33.1808642,4.416 31.2519753,2.185 C30.2883951,1.07 29.0232099,0.511 27.7597531,0.511 C26.4962963,0.511 25.2311111,1.07 24.2675309,2.185 L1.84765432,28.129 C-0.0820987654,30.36 -0.0820987654,33.979 1.84765432,36.211 L1.84765432,36.211 Z" id="Shape"></path>
        </g>
    </g>
</svg>