<?xml version="1.0" encoding="UTF-8" standalone="no"?>
<svg width="28px" height="44px" viewBox="0 0 28 44" version="1.1" xmlns="http://www.w3.org/2000/svg" xmlns:xlink="http://www.w3.org/1999/xlink">
    <!-- Generator: Sketch 3.6.1 (26313) - http://www.bohemiancoding.com/sketch -->
    <title>noun_399890_cc</title>
    <desc>Created with Sketch.</desc>
    <defs></defs>
    <g id="Page-1" stroke="none" stroke-width="1" fill="none" fill-rule="evenodd">
        <g id="noun_399890_cc" fill="#000000">
            <g id="Group">
                <path d="M25.788,22.345 L16.139,1.688 C15.773,0.906 14.978,0.401 14.114,0.401 C13.25,0.401 12.455,0.906 12.089,1.688 L2.405,22.425 C1.294,25.068 0.776,27.272 0.776,29.361 C0.776,37.379 6.759,43.901 14.114,43.901 C21.469,43.901 27.452,37.379 27.452,29.361 C27.451,27.245 26.483,23.851 25.788,22.345 L25.788,22.345 Z M14.113,42.9 C7.31,42.9 1.775,36.826 1.775,29.36 C1.775,27.409 2.268,25.328 3.318,22.83 L12.994,2.111 C13.196,1.679 13.636,1.4 14.113,1.4 C14.59,1.4 15.03,1.679 15.232,2.111 L24.88,22.766 C25.521,24.152 26.45,27.411 26.45,29.36 C26.451,36.826 20.916,42.9 14.113,42.9 L14.113,42.9 Z" id="Shape"></path>
                <path d="M14.113,14.712 C9.087,14.712 4.997,20.854 4.997,28.403 C4.997,35.952 9.087,42.094 14.113,42.094 C19.139,42.094 23.229,35.952 23.229,28.403 C23.229,20.854 19.14,14.712 14.113,14.712 L14.113,14.712 Z M14.113,41.095 C9.637,41.095 5.997,35.402 5.997,28.404 C5.997,21.406 9.638,15.713 14.113,15.713 C18.588,15.713 22.229,21.406 22.229,28.404 C22.229,35.402 18.589,41.095 14.113,41.095 L14.113,41.095 Z" id="Shape"></path>
                <path d="M16.428,27.903 C14.492,27.903 12.977,30.107 12.977,32.921 C12.977,35.735 14.493,37.94 16.428,37.94 C18.363,37.94 19.878,35.736 19.878,32.921 C19.878,30.107 18.362,27.903 16.428,27.903 L16.428,27.903 Z M16.428,36.939 C15.099,36.939 13.977,35.099 13.977,32.92 C13.977,30.742 15.099,28.902 16.428,28.902 C17.756,28.902 18.878,30.742 18.878,32.92 C18.878,35.1 17.756,36.939 16.428,36.939 L16.428,36.939 Z" id="Shape"></path>
            </g>
        </g>
    </g>
</svg>