<?xml version="1.0" encoding="UTF-8" standalone="no"?>
<svg width="80px" height="80px" viewBox="0 0 80 80" version="1.1" xmlns="http://www.w3.org/2000/svg" xmlns:xlink="http://www.w3.org/1999/xlink">
    <!-- Generator: Sketch 3.6.1 (26313) - http://www.bohemiancoding.com/sketch -->
    <title>seed</title>
    <desc>Created with Sketch.</desc>
    <defs></defs>
    <g id="Page-1" stroke="none" stroke-width="1" fill="none" fill-rule="evenodd">
        <g id="seed" transform="translate(16.000000, 3.000000)" fill="#000000">
            <g id="Page-1">
                <g id="noun_399890_cc">
                    <g id="Group">
                        <path d="M43.9568182,38.0880682 L27.5096591,2.87727273 C26.8857955,1.54431818 25.5306818,0.683522727 24.0579545,0.683522727 C22.5852273,0.683522727 21.2301136,1.54431818 20.60625,2.87727273 L4.09943182,38.2244318 C2.20568182,42.7295455 1.32272727,46.4863636 1.32272727,50.0471591 C1.32272727,63.7142045 11.5210227,74.83125 24.0579545,74.83125 C36.5948864,74.83125 46.7931818,63.7142045 46.7931818,50.0471591 C46.7914773,46.4403409 45.1414773,40.6551136 43.9568182,38.0880682 L43.9568182,38.0880682 L43.9568182,38.0880682 Z M24.05625,73.125 C12.4602273,73.125 3.02556818,62.7715909 3.02556818,50.0454545 C3.02556818,46.7198864 3.86590909,43.1727273 5.65568182,38.9147727 L22.1488636,3.59829545 C22.4931818,2.86193182 23.2431818,2.38636364 24.05625,2.38636364 C24.8693182,2.38636364 25.6193182,2.86193182 25.9636364,3.59829545 L42.4090909,38.8056818 C43.5017045,41.1681818 45.0852273,46.7232955 45.0852273,50.0454545 C45.0869318,62.7715909 35.6522727,73.125 24.05625,73.125 L24.05625,73.125 L24.05625,73.125 Z" id="Shape"></path>
                        <path d="M24.05625,25.0772727 C15.4892045,25.0772727 8.51761364,35.5465909 8.51761364,48.4142045 C8.51761364,61.2818182 15.4892045,71.7511364 24.05625,71.7511364 C32.6232955,71.7511364 39.5948864,61.2818182 39.5948864,48.4142045 C39.5948864,35.5465909 32.625,25.0772727 24.05625,25.0772727 L24.05625,25.0772727 L24.05625,25.0772727 Z M24.05625,70.0482955 C16.4267045,70.0482955 10.2221591,60.3443182 10.2221591,48.4159091 C10.2221591,36.4875 16.4284091,26.7835227 24.05625,26.7835227 C31.6840909,26.7835227 37.8903409,36.4875 37.8903409,48.4159091 C37.8903409,60.3443182 31.6857955,70.0482955 24.05625,70.0482955 L24.05625,70.0482955 L24.05625,70.0482955 Z" id="Shape"></path>
                        <path d="M28.0022727,47.5619318 C24.7022727,47.5619318 22.1198864,51.31875 22.1198864,56.1153409 C22.1198864,60.9119318 24.7039773,64.6704545 28.0022727,64.6704545 C31.3005682,64.6704545 33.8829545,60.9136364 33.8829545,56.1153409 C33.8829545,51.31875 31.2988636,47.5619318 28.0022727,47.5619318 L28.0022727,47.5619318 L28.0022727,47.5619318 Z M28.0022727,62.9642045 C25.7369318,62.9642045 23.8244318,59.8278409 23.8244318,56.1136364 C23.8244318,52.4011364 25.7369318,49.2647727 28.0022727,49.2647727 C30.2659091,49.2647727 32.1784091,52.4011364 32.1784091,56.1136364 C32.1784091,59.8295455 30.2659091,62.9642045 28.0022727,62.9642045 L28.0022727,62.9642045 L28.0022727,62.9642045 Z" id="Shape"></path>
                    </g>
                </g>
            </g>
        </g>
    </g>
</svg>