<?xml version="1.0" encoding="UTF-8" standalone="no"?>
<svg width="76px" height="62px" viewBox="0 0 76 62" version="1.1" xmlns="http://www.w3.org/2000/svg" xmlns:xlink="http://www.w3.org/1999/xlink">
    <!-- Generator: Sketch 3.6.1 (26313) - http://www.bohemiancoding.com/sketch -->
    <title>sla</title>
    <desc>Created with Sketch.</desc>
    <defs></defs>
    <g id="Page-1" stroke="none" stroke-width="1" fill="none" fill-rule="evenodd">
        <g id="sla" fill="#000000">
            <path d="M71.89,35.155 C72.307,34.527 72.619,33.835 72.817,33.101 C73.71,29.767 72.059,26.34 69.061,24.889 C69.707,20.027 66.654,15.309 61.792,14.006 C60.949,13.78 60.084,13.665 59.219,13.665 C58.65,13.665 58.091,13.719 57.544,13.813 C56.548,12.323 55.188,11.133 53.578,10.37 C53.356,6.661 50.268,3.712 46.505,3.712 C46.021,3.712 45.54,3.765 45.054,3.874 C43.187,1.958 40.665,0.877 38.001,0.877 C35.336,0.877 32.813,1.959 30.946,3.874 C30.459,3.767 29.974,3.712 29.497,3.712 C25.732,3.712 22.643,6.661 22.422,10.371 C20.813,11.135 19.452,12.323 18.458,13.814 C17.911,13.719 17.353,13.666 16.784,13.666 C15.919,13.666 15.053,13.78 14.21,14.007 C11.65,14.693 9.51,16.333 8.185,18.629 C7.078,20.546 6.65,22.729 6.939,24.888 C5.669,25.499 4.613,26.476 3.893,27.723 C2.946,29.363 2.695,31.272 3.185,33.1 C3.382,33.833 3.695,34.526 4.112,35.156 C1.008,37.57 -0.403,41.612 0.644,45.52 C1.804,49.851 5.743,52.875 10.223,52.875 C11.088,52.875 11.953,52.761 12.796,52.535 C13.027,52.473 13.256,52.401 13.486,52.32 C18.043,57.888 24.931,61.181 32.13,61.18 C34.102,61.18 36.074,60.925 38.002,60.441 C39.93,60.925 41.902,61.18 43.873,61.18 C51.073,61.18 57.962,57.888 62.519,52.32 C62.749,52.402 62.978,52.473 63.209,52.535 C64.051,52.761 64.916,52.875 65.781,52.875 L65.782,52.875 C70.261,52.875 74.2,49.851 75.359,45.52 C76.404,41.612 74.993,37.57 71.89,35.155 L71.89,35.155 Z M24.344,12.644 C24.958,12.43 25.347,11.826 25.29,11.179 C25.282,11.094 25.271,11.01 25.26,10.927 C25.254,10.883 25.246,10.84 25.244,10.799 C25.244,8.455 27.152,6.548 29.497,6.548 C29.958,6.548 30.426,6.636 30.928,6.818 C31.496,7.027 32.134,6.846 32.514,6.377 C33.88,4.685 35.88,3.714 38.001,3.714 C40.122,3.714 42.122,4.685 43.487,6.376 C43.868,6.847 44.505,7.025 45.072,6.819 C45.576,6.636 46.046,6.548 46.506,6.548 C48.851,6.548 50.757,8.455 50.758,10.796 C50.756,10.84 50.748,10.883 50.742,10.926 C50.73,11.011 50.72,11.096 50.712,11.183 C50.656,11.829 51.046,12.43 51.658,12.644 C52.86,13.062 53.91,13.793 54.72,14.757 C53.69,15.284 52.757,15.986 51.968,16.831 C51.924,16.878 51.884,16.928 51.841,16.975 C51.711,17.12 51.585,17.266 51.464,17.418 C51.393,17.507 51.324,17.599 51.256,17.689 C51.167,17.809 51.081,17.931 50.997,18.056 C50.927,18.16 50.857,18.263 50.792,18.369 C50.712,18.498 50.637,18.631 50.563,18.764 C50.506,18.866 50.448,18.966 50.394,19.07 C50.283,19.288 50.179,19.509 50.083,19.737 C50.075,19.757 50.064,19.775 50.056,19.796 C46.682,19.549 43.571,21.771 42.698,25.032 C42.51,25.731 42.442,26.451 42.474,27.17 C42.476,27.205 42.47,27.241 42.472,27.277 C42.414,27.285 42.361,27.304 42.303,27.313 C41.924,27.375 41.549,27.454 41.181,27.558 C40.988,27.613 40.803,27.685 40.614,27.751 C40.392,27.828 40.173,27.905 39.957,27.999 C39.733,28.095 39.519,28.203 39.304,28.315 C39.144,28.399 38.986,28.485 38.83,28.577 C38.59,28.719 38.358,28.868 38.131,29.029 C38.089,29.059 38.043,29.083 38.002,29.113 C37.941,29.068 37.874,29.034 37.813,28.991 C37.592,28.834 37.364,28.687 37.13,28.55 C37.013,28.481 36.894,28.415 36.775,28.352 C36.517,28.213 36.254,28.084 35.985,27.969 C35.939,27.949 35.896,27.926 35.85,27.907 C35.517,27.77 35.175,27.658 34.827,27.558 C34.758,27.538 34.689,27.52 34.62,27.502 C34.264,27.408 33.902,27.327 33.532,27.274 C33.578,26.52 33.504,25.763 33.307,25.029 C32.433,21.768 29.316,19.547 25.949,19.794 C25.931,19.752 25.909,19.713 25.891,19.671 C25.804,19.468 25.711,19.267 25.611,19.07 C25.557,18.965 25.497,18.863 25.44,18.759 C25.366,18.627 25.291,18.494 25.211,18.366 C25.146,18.262 25.078,18.159 25.009,18.056 C24.923,17.929 24.835,17.804 24.743,17.68 C24.678,17.592 24.612,17.504 24.543,17.419 C24.418,17.261 24.286,17.107 24.151,16.958 C24.113,16.916 24.077,16.872 24.039,16.831 C23.249,15.983 22.316,15.281 21.284,14.753 C22.091,13.793 23.141,13.062 24.344,12.644 L24.344,12.644 Z M15.073,49.749 C14.798,49.379 14.371,49.177 13.935,49.177 C13.725,49.177 13.513,49.224 13.315,49.321 C12.882,49.532 12.472,49.688 12.061,49.799 C11.458,49.96 10.839,50.042 10.222,50.042 C7.023,50.042 4.21,47.881 3.382,44.787 C2.527,41.594 3.973,38.274 6.9,36.716 C7.308,36.499 7.584,36.097 7.64,35.638 C7.697,35.18 7.526,34.723 7.183,34.413 C6.569,33.858 6.134,33.151 5.923,32.367 C5.629,31.271 5.78,30.126 6.348,29.142 C6.916,28.158 7.833,27.455 8.93,27.162 C9.293,27.064 9.603,26.827 9.791,26.502 C9.979,26.176 10.03,25.789 9.933,25.426 C9.443,23.598 9.695,21.688 10.641,20.048 C11.587,18.409 13.116,17.236 14.944,16.747 C15.547,16.585 16.166,16.503 16.784,16.503 C17.432,16.503 18.057,16.613 18.661,16.78 C18.686,16.789 18.709,16.803 18.735,16.811 C19.862,17.137 20.852,17.721 21.662,18.486 C21.725,18.546 21.795,18.598 21.856,18.661 C21.959,18.765 22.047,18.882 22.143,18.992 C22.282,19.154 22.419,19.317 22.543,19.492 C22.618,19.596 22.688,19.706 22.757,19.814 C22.886,20.018 23.005,20.23 23.113,20.449 C23.162,20.548 23.215,20.645 23.259,20.747 C23.401,21.069 23.526,21.401 23.619,21.749 C23.62,21.752 23.621,21.755 23.622,21.758 C23.671,21.941 23.755,22.104 23.863,22.245 C23.865,22.249 23.867,22.252 23.869,22.255 C23.983,22.402 24.123,22.526 24.282,22.617 C24.282,22.617 24.282,22.617 24.283,22.618 L24.283,22.618 C24.598,22.8 24.982,22.862 25.358,22.76 C25.72,22.662 26.092,22.614 26.462,22.614 C26.941,22.614 27.407,22.695 27.842,22.845 C29.149,23.296 30.191,24.373 30.564,25.766 C30.774,26.55 30.75,27.38 30.496,28.166 C30.46,28.276 30.439,28.389 30.431,28.502 C30.407,28.84 30.504,29.18 30.713,29.457 C30.745,29.5 30.787,29.532 30.823,29.571 C31.021,29.781 31.268,29.931 31.552,29.989 C31.662,30.012 31.777,30.023 31.893,30.019 L32.133,30.015 C32.316,30.015 32.497,30.028 32.677,30.041 C32.722,30.045 32.767,30.044 32.812,30.048 C32.945,30.061 33.076,30.085 33.208,30.106 C33.302,30.121 33.397,30.13 33.491,30.149 C33.591,30.169 33.689,30.198 33.788,30.221 C33.911,30.251 34.035,30.279 34.156,30.315 C34.225,30.336 34.292,30.364 34.36,30.386 C34.508,30.436 34.657,30.486 34.8,30.545 C34.842,30.562 34.882,30.583 34.923,30.602 C35.09,30.674 35.256,30.749 35.416,30.834 C35.436,30.845 35.454,30.857 35.474,30.867 C35.637,30.956 35.797,31.051 35.953,31.151 C35.206,32.141 34.619,33.265 34.284,34.515 C33.465,37.572 34.179,40.682 35.945,43.037 C35.347,43.423 34.689,43.734 33.965,43.928 C32.494,44.321 32.728,46.102 32.867,47.166 C33.113,49.042 33.801,52.093 34.579,54.757 C34.907,55.88 35.201,56.779 35.475,57.51 C33.575,56.914 31.403,55.086 29.24,52.193 C27.748,50.199 26.353,47.806 25.087,45.153 L28.139,38.605 C28.47,37.896 28.163,37.052 27.453,36.721 C26.744,36.392 25.899,36.698 25.569,37.408 L23.568,41.701 C22.691,39.501 21.91,37.158 21.238,34.729 L24.946,28.307 C25.338,27.628 25.105,26.762 24.427,26.37 C23.747,25.978 22.883,26.211 22.49,26.889 L19.189,32.605 L13.474,29.306 C12.796,28.914 11.93,29.147 11.538,29.825 C11.146,30.503 11.379,31.37 12.057,31.762 L18.505,35.484 C19.178,37.916 19.961,40.263 20.837,42.486 L16.8,40.602 C16.09,40.27 15.248,40.577 14.916,41.287 C14.585,41.997 14.892,42.841 15.602,43.171 L22.551,46.411 C23.895,49.223 25.38,51.765 26.972,53.893 C28.368,55.759 29.793,57.225 31.212,58.32 C24.87,58.04 18.891,54.886 15.073,49.749 L15.073,49.749 Z M38,56.188 C37.032,53.424 35.81,48.322 35.621,46.372 C36.486,46.048 37.271,45.599 37.986,45.069 C38.708,45.602 39.509,46.045 40.382,46.372 C40.191,48.321 38.969,53.425 38,56.188 Z M72.619,44.787 C71.791,47.881 68.977,50.041 65.779,50.041 C65.162,50.041 64.543,49.959 63.94,49.798 C63.531,49.688 63.119,49.532 62.682,49.32 C62.071,49.024 61.333,49.205 60.927,49.751 C57.098,54.903 51.091,58.059 44.727,58.321 C47.819,55.941 50.881,51.781 53.46,46.404 L60.398,43.171 C61.108,42.84 61.415,41.996 61.085,41.287 C60.753,40.578 59.91,40.271 59.201,40.6 L55.168,42.48 C56.034,40.286 56.819,37.942 57.5,35.479 L63.941,31.76 C64.619,31.368 64.851,30.501 64.46,29.823 C64.067,29.144 63.2,28.914 62.523,29.304 L56.807,32.604 L53.507,26.887 C53.114,26.207 52.248,25.978 51.57,26.368 C50.892,26.758 50.66,27.626 51.051,28.304 L54.763,34.735 C54.114,37.067 53.313,39.402 52.404,41.645 L50.428,37.407 C50.096,36.698 49.253,36.391 48.544,36.72 C47.834,37.051 47.527,37.895 47.857,38.604 L50.882,45.094 C47.816,51.503 43.96,56.572 40.5,57.561 C40.782,56.819 41.084,55.902 41.421,54.747 C42.199,52.076 42.888,49.023 43.132,47.151 C43.271,46.092 43.502,44.32 42.033,43.927 C38.259,42.914 36.011,39.021 37.021,35.247 C37.386,33.886 38.153,32.724 39.156,31.83 C39.385,31.626 39.624,31.437 39.872,31.267 C39.991,31.186 40.111,31.107 40.234,31.034 C40.37,30.952 40.505,30.869 40.644,30.798 C40.886,30.674 41.137,30.566 41.393,30.47 C41.498,30.43 41.605,30.393 41.712,30.359 C42.003,30.266 42.3,30.187 42.605,30.131 C42.676,30.118 42.749,30.11 42.82,30.1 C43.152,30.051 43.488,30.017 43.831,30.016 C43.843,30.016 43.853,30.014 43.865,30.014 L44.102,30.018 C44.119,30.019 44.135,30.019 44.151,30.019 C44.159,30.02 44.166,30.02 44.171,30.019 C44.954,30.019 45.589,29.384 45.589,28.602 C45.589,28.414 45.546,28.239 45.48,28.075 C45.444,27.959 45.417,27.84 45.392,27.721 C45.376,27.649 45.359,27.576 45.347,27.503 C45.328,27.385 45.32,27.267 45.312,27.149 C45.306,27.071 45.296,26.994 45.295,26.916 C45.293,26.793 45.302,26.67 45.311,26.548 C45.316,26.477 45.316,26.405 45.324,26.335 C45.348,26.144 45.383,25.952 45.433,25.765 C45.557,25.301 45.756,24.872 46.014,24.49 C46.05,24.435 46.097,24.389 46.136,24.337 C46.235,24.205 46.331,24.072 46.444,23.953 C47.228,23.12 48.337,22.614 49.535,22.614 C49.905,22.614 50.277,22.663 50.639,22.76 C50.819,22.808 51.006,22.819 51.19,22.795 C51.296,22.781 51.394,22.73 51.496,22.692 C51.568,22.665 51.646,22.657 51.715,22.618 C51.716,22.618 51.716,22.617 51.717,22.617 C51.811,22.562 51.878,22.479 51.956,22.407 C52.013,22.353 52.084,22.315 52.131,22.253 C52.244,22.107 52.328,21.939 52.377,21.756 C52.379,21.749 52.382,21.742 52.384,21.735 C52.478,21.391 52.601,21.062 52.74,20.744 C52.784,20.645 52.835,20.552 52.882,20.456 C52.993,20.231 53.115,20.015 53.248,19.805 C53.313,19.702 53.379,19.599 53.45,19.499 C53.581,19.315 53.724,19.144 53.87,18.974 C53.96,18.871 54.043,18.763 54.14,18.665 C54.223,18.578 54.319,18.505 54.407,18.423 C55.205,17.691 56.171,17.128 57.266,16.811 C57.293,16.803 57.318,16.788 57.344,16.778 C57.947,16.612 58.571,16.502 59.217,16.502 C59.834,16.502 60.453,16.584 61.056,16.746 C64.83,17.758 67.078,21.651 66.068,25.426 C65.866,26.183 66.314,26.959 67.07,27.162 C69.334,27.768 70.682,30.105 70.077,32.368 C69.867,33.151 69.431,33.858 68.817,34.413 C68.474,34.723 68.303,35.18 68.36,35.639 C68.417,36.097 68.693,36.499 69.101,36.716 C72.028,38.273 73.475,41.593 72.619,44.787 Z" id="Shape"></path>
        </g>
    </g>
</svg>
