<?xml version="1.0" encoding="UTF-8" standalone="no"?>
<svg width="80px" height="80px" viewBox="0 0 80 80" version="1.1" xmlns="http://www.w3.org/2000/svg" xmlns:xlink="http://www.w3.org/1999/xlink">
    <!-- Generator: Sketch 3.6.1 (26313) - http://www.bohemiancoding.com/sketch -->
    <title>sun</title>
    <desc>Created with Sketch.</desc>
    <defs></defs>
    <g id="Page-1" stroke="none" stroke-width="1" fill="none" fill-rule="evenodd">
        <g id="sun" transform="translate(2.000000, 2.000000)" fill="#000000">
            <g id="Page-1">
                <g id="noun_275581_cc">
                    <g id="Group">
                        <path d="M38.0341224,19.2528163 C27.741551,19.2528163 19.3986122,27.5965306 19.3986122,37.8883265 C19.3986122,48.180898 27.7423265,56.5238367 38.0341224,56.5238367 C48.3259184,56.5238367 56.6704082,48.1801224 56.6704082,37.8883265 C56.6704082,27.5965306 48.3266939,19.2528163 38.0341224,19.2528163 L38.0341224,19.2528163 L38.0341224,19.2528163 Z M38.0341224,53.3527755 C29.5073878,53.3527755 22.570449,46.4158367 22.570449,37.889102 C22.570449,29.3623673 29.5073878,22.4254286 38.0341224,22.4254286 C46.5608571,22.4254286 53.4977959,29.3623673 53.4977959,37.889102 C53.4977959,46.4158367 46.5608571,53.3527755 38.0341224,53.3527755 L38.0341224,53.3527755 L38.0341224,53.3527755 Z" id="Shape"></path>
                        <path d="M15.730449,38 C15.730449,37.1213469 15.0185306,36.4094286 14.1398776,36.4094286 L1.59057143,36.4094286 C0.711918367,36.4094286 0,37.1213469 0,38 C0,38.8786531 0.711918367,39.5905714 1.59057143,39.5905714 L14.1398776,39.5905714 C15.0185306,39.5913469 15.730449,38.8786531 15.730449,38 L15.730449,38 L15.730449,38 Z" id="Shape"></path>
                        <path d="M74.4094286,36.4094286 L61.8601224,36.4094286 C60.9814694,36.4094286 60.269551,37.1221224 60.269551,38 C60.269551,38.8786531 60.9814694,39.5905714 61.8601224,39.5905714 L74.4094286,39.5905714 C75.2880816,39.5913469 76,38.8786531 76,38 C76,37.1213469 75.2880816,36.4094286 74.4094286,36.4094286 L74.4094286,36.4094286 L74.4094286,36.4094286 Z" id="Shape"></path>
                        <path d="M38,60.269551 C37.1213469,60.269551 36.4094286,60.9814694 36.4094286,61.860898 L36.4094286,74.4102041 C36.4094286,75.2880816 37.1213469,76 38,76 C38.8786531,76 39.5905714,75.2880816 39.5905714,74.4094286 L39.5905714,61.8601224 C39.5913469,60.9814694 38.8786531,60.269551 38,60.269551 L38,60.269551 L38,60.269551 Z" id="Shape"></path>
                        <path d="M38,15.730449 C38.8786531,15.730449 39.5905714,15.0185306 39.5905714,14.1398776 L39.5905714,1.59057143 C39.5913469,0.711918367 38.8786531,0 38,0 C37.1213469,0 36.4094286,0.711918367 36.4094286,1.59134694 L36.4094286,14.1406531 C36.4094286,15.0185306 37.1213469,15.730449 38,15.730449 L38,15.730449 L38,15.730449 Z" id="Shape"></path>
                        <path d="M20.0035102,53.7467347 L11.1301224,62.6201224 C10.5089388,63.2413061 10.5089388,64.2486939 11.1301224,64.8698776 C11.7513061,65.4910612 12.7586939,65.4910612 13.3798776,64.8698776 L22.2532653,55.9964898 C22.874449,55.3753061 22.874449,54.3679184 22.2532653,53.7467347 C21.6320816,53.125551 20.6246939,53.125551 20.0035102,53.7467347 L20.0035102,53.7467347 L20.0035102,53.7467347 Z" id="Shape"></path>
                        <path d="M55.9964898,22.2532653 L64.8698776,13.3798776 C65.4910612,12.7586939 65.4910612,11.7513061 64.8698776,11.1301224 C64.2486939,10.5089388 63.2413061,10.5089388 62.6201224,11.1301224 L53.7467347,20.0035102 C53.125551,20.6246939 53.125551,21.6320816 53.7467347,22.2532653 C54.3679184,22.874449 55.3753061,22.874449 55.9964898,22.2532653 L55.9964898,22.2532653 L55.9964898,22.2532653 Z" id="Shape"></path>
                        <path d="M55.9964898,53.7467347 C55.3753061,53.125551 54.3679184,53.125551 53.7467347,53.7467347 C53.125551,54.3679184 53.125551,55.3753061 53.7467347,55.9964898 L62.6201224,64.8698776 C63.2413061,65.4910612 64.2486939,65.4910612 64.8698776,64.8698776 C65.4910612,64.2486939 65.4910612,63.2413061 64.8698776,62.6201224 L55.9964898,53.7467347 L55.9964898,53.7467347 L55.9964898,53.7467347 Z" id="Shape"></path>
                        <path d="M20.0035102,22.2532653 C20.6246939,22.874449 21.6320816,22.874449 22.2532653,22.2532653 C22.874449,21.6320816 22.874449,20.6246939 22.2532653,20.0035102 L13.3798776,11.1301224 C12.7586939,10.5089388 11.7513061,10.5089388 11.1301224,11.1301224 C10.5089388,11.7513061 10.5089388,12.7586939 11.1301224,13.3798776 L20.0035102,22.2532653 L20.0035102,22.2532653 L20.0035102,22.2532653 Z" id="Shape"></path>
                    </g>
                </g>
            </g>
        </g>
    </g>
</svg>