<?xml version="1.0" encoding="UTF-8" standalone="no"?>
<svg width="98px" height="98px" viewBox="0 0 98 98" version="1.1" xmlns="http://www.w3.org/2000/svg" xmlns:xlink="http://www.w3.org/1999/xlink">
    <!-- Generator: Sketch 3.6.1 (26313) - http://www.bohemiancoding.com/sketch -->
    <title>noun_275581_cc</title>
    <desc>Created with Sketch.</desc>
    <defs></defs>
    <g id="Page-1" stroke="none" stroke-width="1" fill="none" fill-rule="evenodd">
        <g id="noun_275581_cc" fill="#000000">
            <g id="Group">
                <path d="M49.044,24.826 C35.772,24.826 25.014,35.585 25.014,48.856 C25.014,62.128 35.773,72.886 49.044,72.886 C62.315,72.886 73.075,62.127 73.075,48.856 C73.075,35.585 62.316,24.826 49.044,24.826 L49.044,24.826 Z M49.044,68.797 C38.049,68.797 29.104,59.852 29.104,48.857 C29.104,37.862 38.049,28.917 49.044,28.917 C60.039,28.917 68.984,37.862 68.984,48.857 C68.984,59.852 60.039,68.797 49.044,68.797 L49.044,68.797 Z" id="Shape"></path>
                <path d="M20.284,49 C20.284,47.867 19.366,46.949 18.233,46.949 L2.051,46.949 C0.918,46.949 0,47.867 0,49 C0,50.133 0.918,51.051 2.051,51.051 L18.233,51.051 C19.366,51.052 20.284,50.133 20.284,49 L20.284,49 Z" id="Shape"></path>
                <path d="M95.949,46.949 L79.767,46.949 C78.634,46.949 77.716,47.868 77.716,49 C77.716,50.133 78.634,51.051 79.767,51.051 L95.949,51.051 C97.082,51.052 98,50.133 98,49 C98,47.867 97.082,46.949 95.949,46.949 L95.949,46.949 Z" id="Shape"></path>
                <path d="M49,77.716 C47.867,77.716 46.949,78.634 46.949,79.768 L46.949,95.95 C46.949,97.082 47.867,98 49,98 C50.133,98 51.051,97.082 51.051,95.949 L51.051,79.767 C51.052,78.634 50.133,77.716 49,77.716 L49,77.716 Z" id="Shape"></path>
                <path d="M49,20.284 C50.133,20.284 51.051,19.366 51.051,18.233 L51.051,2.051 C51.052,0.918 50.133,0 49,0 C47.867,0 46.949,0.918 46.949,2.052 L46.949,18.234 C46.949,19.366 47.867,20.284 49,20.284 L49,20.284 Z" id="Shape"></path>
                <path d="M25.794,69.305 L14.352,80.747 C13.551,81.548 13.551,82.847 14.352,83.648 C15.153,84.449 16.452,84.449 17.253,83.648 L28.695,72.206 C29.496,71.405 29.496,70.106 28.695,69.305 C27.894,68.504 26.595,68.504 25.794,69.305 L25.794,69.305 Z" id="Shape"></path>
                <path d="M72.206,28.695 L83.648,17.253 C84.449,16.452 84.449,15.153 83.648,14.352 C82.847,13.551 81.548,13.551 80.747,14.352 L69.305,25.794 C68.504,26.595 68.504,27.894 69.305,28.695 C70.106,29.496 71.405,29.496 72.206,28.695 L72.206,28.695 Z" id="Shape"></path>
                <path d="M72.206,69.305 C71.405,68.504 70.106,68.504 69.305,69.305 C68.504,70.106 68.504,71.405 69.305,72.206 L80.747,83.648 C81.548,84.449 82.847,84.449 83.648,83.648 C84.449,82.847 84.449,81.548 83.648,80.747 L72.206,69.305 L72.206,69.305 Z" id="Shape"></path>
                <path d="M25.794,28.695 C26.595,29.496 27.894,29.496 28.695,28.695 C29.496,27.894 29.496,26.595 28.695,25.794 L17.253,14.352 C16.452,13.551 15.153,13.551 14.352,14.352 C13.551,15.153 13.551,16.452 14.352,17.253 L25.794,28.695 L25.794,28.695 Z" id="Shape"></path>
            </g>
        </g>
    </g>
</svg>