<?xml version="1.0" encoding="UTF-8" standalone="no"?>
<svg width="60px" height="91px" viewBox="0 0 60 91" version="1.1" xmlns="http://www.w3.org/2000/svg" xmlns:xlink="http://www.w3.org/1999/xlink">
    <!-- Generator: Sketch 3.6.1 (26313) - http://www.bohemiancoding.com/sketch -->
    <title>noun_390049_cc</title>
    <desc>Created with Sketch.</desc>
    <defs></defs>
    <g id="Page-1" stroke="none" stroke-width="1" fill="none" fill-rule="evenodd">
        <g id="noun_390049_cc" transform="translate(0.000000, -1.000000)" fill="#000000">
            <path d="M30,9.2 L52.5,50.4 C54.4,54 55.5,58 55.5,62.3 C55.5,76.4 44.1,87.8 30,87.8 C15.9,87.8 4.5,76.4 4.5,62.3 C4.5,58 5.6,54 7.5,50.4 L30,9.2 L30,9.2 Z M30,0.9 L26.5,7.3 L3.9,48.5 L3.9,48.5 L3.9,48.5 C1.7,52.7 0.5,57.5 0.5,62.3 C0.5,78.6 13.7,91.8 30,91.8 C46.3,91.8 59.5,78.6 59.5,62.3 C59.5,57.5 58.3,52.8 56.1,48.5 L56.1,48.5 L56.1,48.5 L33.5,7.3 L30,0.9 L30,0.9 L30,0.9 Z" id="Shape"></path>
            <path d="M29.2,80.5 C19.7,80.5 11.9,72.7 11.9,63.2 C11.9,62.1 12.8,61.2 13.9,61.2 C15,61.2 15.9,62.1 15.9,63.2 C15.9,70.5 21.9,76.5 29.2,76.5 C30.3,76.5 31.2,77.4 31.2,78.5 C31.2,79.6 30.3,80.5 29.2,80.5 L29.2,80.5 Z" id="Shape"></path>
        </g>
    </g>
</svg>