<?xml version="1.0" encoding="UTF-8" standalone="no"?>
<svg width="80px" height="80px" viewBox="0 0 80 80" version="1.1" xmlns="http://www.w3.org/2000/svg" xmlns:xlink="http://www.w3.org/1999/xlink">
    <!-- Generator: Sketch 3.6.1 (26313) - http://www.bohemiancoding.com/sketch -->
    <title>noun_94689_cc</title>
    <desc>Created with Sketch.</desc>
    <defs></defs>
    <g id="Page-1" stroke="none" stroke-width="1" fill="none" fill-rule="evenodd">
        <g id="noun_94689_cc" transform="translate(5.000000, 11.000000)" fill="#000000">
            <path d="M66.742439,10.4504878 C68.3754878,7.57280488 68.7178049,5.23804878 67.7915854,3.37963415 C66.077439,-0.058902439 60.8760976,0.0682926829 60.2921951,0.0930487805 C59.567439,0.124634146 59.0057317,0.737560976 59.0364634,1.46231707 C59.0680488,2.18621951 59.6485366,2.74621951 60.4057317,2.71719512 C61.4497561,2.67536585 64.6219512,2.91097561 65.4406098,4.55170732 C65.7410976,5.15353659 65.8939024,6.36060976 64.7713415,8.56731707 C62.8813415,7.13658537 60.6558537,6.40073171 58.1179268,6.40073171 C50.5809756,6.40073171 42.9228049,12.850122 42.6009756,13.1241463 C42.1630488,13.4980488 42.0179268,14.1118293 42.245,14.6402439 C42.4712195,15.1695122 43.0115854,15.4956098 43.5860976,15.4307317 L44.835,15.3026829 C42.5010976,17.292561 38.9609756,19.5667073 34.2940244,20.4263415 C32.6814634,20.7234146 30.6139024,20.9556098 28.425122,21.2014634 C17.4317073,22.4367073 0.817804878,24.3036585 0.817804878,38.6758537 C0.817804878,52.8952439 12.2312195,57.962561 22.9121951,57.962561 C29.2608537,57.962561 40.4830488,57.9437805 60.0907317,32.3954878 C60.2153659,32.5534146 60.3639024,32.692561 60.555122,32.7813415 C60.7318293,32.8632927 60.9213415,32.9034146 61.107439,32.9034146 C61.465122,32.9034146 61.8159756,32.757439 62.0712195,32.4834146 C62.58,31.9336585 74.0779268,19.3234146 66.742439,10.4504878 L66.742439,10.4504878 Z M22.9121951,55.3358537 C18.345122,55.3358537 3.4445122,54.1347561 3.4445122,38.6758537 C3.4445122,26.6512195 18.0523171,25.0104878 28.7187805,23.8110976 C30.9553659,23.560122 33.0673171,23.3228049 34.7695122,23.0095122 C42.1639024,21.6470732 46.9589024,17.2310976 49.064878,14.8690244 L55.7840244,14.180122 L50.8695122,22.3709756 C50.569878,22.8695122 50.6347561,23.5071951 51.0291463,23.9357317 C51.4235366,24.365122 52.0518293,24.4829268 52.5759756,24.225122 L61.2158537,19.9807317 L60.2503659,27.8173171 C40.04,55.3196341 29.0406098,55.3358537 22.9121951,55.3358537 L22.9121951,55.3358537 Z M63.5779268,16.6617073 C63.3517073,16.5012195 63.0853659,16.4184146 62.8164634,16.4184146 C62.6192683,16.4184146 62.4203659,16.4628049 62.2376829,16.5532927 L55.4126829,19.9064634 L59.3864634,13.2820732 C59.6417073,12.8552439 59.634878,12.3217073 59.3685366,11.9017073 C59.1021951,11.4817073 58.627561,11.2452439 58.1264634,11.299878 L48.3537805,12.3020732 C51.024878,10.7057317 54.6571951,9.02829268 58.1179268,9.02829268 C60.1803659,9.02829268 61.915,9.61987805 63.3969512,10.8184146 C62.9496341,11.4595122 62.4289024,12.150122 61.8031707,12.909878 C61.3421951,13.469878 61.4232927,14.2979268 61.982439,14.7589024 C62.227439,14.9603659 62.5219512,15.0585366 62.8164634,15.0585366 C63.1954878,15.0585366 63.5719512,14.8954878 63.8314634,14.5804878 C64.33,13.9752439 64.7858537,13.3879268 65.2007317,12.8193902 C68.1364634,17.3181707 65.4559756,23.1563415 63.0076829,26.9192683 L64.12,17.8935366 C64.1789024,17.4129268 63.9714634,16.9408537 63.5779268,16.6617073 L63.5779268,16.6617073 Z" id="Shape"></path>
        </g>
    </g>
</svg>