<?xml version="1.0" encoding="UTF-8" standalone="no"?>
<svg width="80px" height="80px" viewBox="0 0 80 80" version="1.1" xmlns="http://www.w3.org/2000/svg" xmlns:xlink="http://www.w3.org/1999/xlink">
    <!-- Generator: Sketch 3.6.1 (26313) - http://www.bohemiancoding.com/sketch -->
    <title>camera</title>
    <desc>Created with Sketch.</desc>
    <defs>
        <filter x="-50%" y="-50%" width="200%" height="200%" filterUnits="objectBoundingBox" id="filter-1">
            <feOffset dx="2" dy="2" in="SourceAlpha" result="shadowOffsetOuter1"></feOffset>
            <feGaussianBlur stdDeviation="1.5" in="shadowOffsetOuter1" result="shadowBlurOuter1"></feGaussianBlur>
            <feColorMatrix values="0 0 0 0 0   0 0 0 0 0   0 0 0 0 0  0 0 0 0.35 0" in="shadowBlurOuter1" type="matrix" result="shadowMatrixOuter1"></feColorMatrix>
            <feMerge>
                <feMergeNode in="shadowMatrixOuter1"></feMergeNode>
                <feMergeNode in="SourceGraphic"></feMergeNode>
            </feMerge>
        </filter>
    </defs>
    <g id="Page-1" stroke="none" stroke-width="1" fill="none" fill-rule="evenodd" filter="url(#filter-1)">
        <g id="camera" transform="translate(6.000000, 12.000000)" fill="#000000">
            <g id="Page-1">
                <g id="noun_349162_cc">
                    <g id="Group">
                        <path d="M7.6209,5.75 C3.9166,5.75 0.8709,8.7644 0.8709,12.4688 L0.8709,49.5312 C0.8709,53.2356 3.9166,56.25 7.6209,56.25 L61.4959,56.25 C65.2002,56.25 68.2146,53.2356 68.2146,49.5312 L68.2146,12.4688 C68.2147,8.7644 65.2002,5.75 61.4959,5.75 L7.6209,5.75 L7.6209,5.75 L7.6209,5.75 Z M42.9646,10.7812 C54.1238,10.7812 63.1834,19.8408 63.1834,31 C63.1834,42.1592 54.1238,51.2188 42.9646,51.2188 C31.8055,51.2188 22.7771,42.1592 22.7771,31 C22.7771,19.8408 31.8055,10.7812 42.9646,10.7812 L42.9646,10.7812 L42.9646,10.7812 Z M7.6209,12.4688 L17.7146,12.4688 L17.7146,17.5312 L7.6209,17.5312 L7.6209,12.4688 L7.6209,12.4688 L7.6209,12.4688 Z" id="Shape"></path>
                        <path d="M42.9646,14.3438 C33.7668,14.3438 26.3084,21.8022 26.3084,31 C26.3084,40.1978 33.7668,47.6562 42.9646,47.6562 C52.1625,47.6562 59.6209,40.1978 59.6209,31 C59.6209,21.8022 52.1625,14.3437 42.9646,14.3438 L42.9646,14.3438 L42.9646,14.3438 Z M42.9646,17.3438 C50.5056,17.3438 56.6209,23.459 56.6209,31 C56.6209,38.541 50.5056,44.6562 42.9646,44.6562 C35.4237,44.6562 29.3084,38.541 29.3084,31 C29.3084,23.459 35.4237,17.3437 42.9646,17.3438 L42.9646,17.3438 L42.9646,17.3438 Z" id="Shape"></path>
                        <path d="M51.0555,25.948 C49.035,23.5907 46.0042,22.2436 42.9733,22.2436 C39.9425,22.2436 36.9117,23.5907 34.8912,25.948 C34.0493,26.7898 34.2176,28.1369 35.0595,28.9788 C35.9014,29.8207 37.2485,29.6523 38.0904,28.8104 C40.616,25.948 45.3306,25.948 47.8563,28.8104 C48.3615,29.3155 48.8666,29.4839 49.5401,29.4839 C50.0453,29.4839 50.5504,29.3155 51.0555,28.9788 C51.729,28.3053 51.8974,26.7898 51.0555,25.948 L51.0555,25.948 L51.0555,25.948 Z" id="Shape"></path>
                        <path d="M54.3978,0.161 C53.4377,0.161 52.6594,0.9393 52.6594,1.8995 L52.6594,4.2356 L61.1344,4.2356 L61.1344,1.8995 C61.1344,0.9393 60.3561,0.161 59.396,0.161 L54.3978,0.161 L54.3978,0.161 L54.3978,0.161 Z" id="Shape"></path>
                    </g>
                </g>
            </g>
        </g>
    </g>
</svg>