<?xml version="1.0" encoding="UTF-8" standalone="no"?>
<svg width="80px" height="80px" viewBox="0 0 80 80" version="1.1" xmlns="http://www.w3.org/2000/svg" xmlns:xlink="http://www.w3.org/1999/xlink">
    <!-- Generator: Sketch 3.6.1 (26313) - http://www.bohemiancoding.com/sketch -->
    <title>noun_319203_cc</title>
    <desc>Created with Sketch.</desc>
    <defs></defs>
    <g id="Page-1" stroke="none" stroke-width="1" fill="none" fill-rule="evenodd">
        <g id="noun_319203_cc" transform="translate(5.000000, 11.000000)" fill="#000000">
            <g id="Group">
                <path d="M14.9180328,51.7540984 C14.1147541,52.0983607 13.4262295,52.2131148 12.852459,52.3278689 C10.9016393,52.557377 8.95081967,51.7540984 7.57377049,50.4918033 C7.3442623,50.2622951 6.8852459,50.2622951 6.6557377,50.4918033 C6.42622951,50.7213115 6.42622951,51.1803279 6.6557377,51.4098361 C8.14754098,52.9016393 10.2131148,53.704918 12.3934426,53.704918 L13.0819672,53.704918 C13.7704918,53.5901639 14.5737705,53.4754098 15.4918033,53.1311475 C15.8360656,53.0163934 16.0655738,52.557377 15.9508197,52.2131148 C15.7213115,51.8688525 15.2622951,51.6393443 14.9180328,51.7540984 L14.9180328,51.7540984 Z" id="Shape"></path>
                <path d="M68.9672131,4.93442623 L64.4918033,0.68852459 C64.147541,0.344262295 63.5737705,0.344262295 63.1147541,0.68852459 L60.0163934,3.21311475 C59.3278689,2.98360656 58.5245902,2.98360656 57.8360656,2.98360656 C56.5737705,2.98360656 55.4262295,3.21311475 54.2786885,3.67213115 C52.0983607,4.59016393 50.4918033,6.31147541 49,8.03278689 C48.5409836,8.60655738 48.0819672,9.06557377 47.5081967,9.63934426 C37.295082,20.1967213 24.0983607,28.6885246 8.14754098,34.7704918 C7.2295082,35.1147541 6.31147541,35.5737705 5.50819672,36.147541 C2.75409836,38.0983607 1.03278689,41.1967213 0.803278689,44.7540984 C0.573770492,48.1967213 1.83606557,51.5245902 4.24590164,53.9344262 C6.42622951,56 9.29508197,57.147541 12.3934426,57.147541 L13.4262295,57.147541 C16.0655738,56.9180328 18.5901639,55.6557377 20.7704918,54.5081967 C21.1147541,54.2786885 21.5737705,54.1639344 21.9180328,53.9344262 C37.295082,46.1311475 50.9508197,35.3442623 61.3934426,22.8360656 C61.7377049,22.3770492 62.1967213,21.9180328 62.5409836,21.4590164 C64.147541,19.7377049 65.8688525,17.6721311 66.6721311,15.3770492 C67.3606557,13.5409836 67.3606557,11.4754098 66.7868852,9.63934426 L69.1967213,6.31147541 C69.4262295,5.96721311 69.4262295,5.39344262 68.9672131,4.93442623 L68.9672131,4.93442623 Z M64.6065574,14.6885246 C63.9180328,16.6393443 62.4262295,18.3606557 60.9344262,20.0819672 C60.4754098,20.5409836 60.1311475,21 59.7868852,21.4590164 C49.5737705,33.7377049 36.147541,44.295082 20.8852459,51.9836066 C20.5409836,52.2131148 20.0819672,52.3278689 19.7377049,52.557377 C17.557377,53.704918 15.3770492,54.852459 13.1967213,54.9672131 C10.442623,55.1967213 7.68852459,54.1639344 5.73770492,52.3278689 C3.78688525,50.3770492 2.75409836,47.6229508 2.86885246,44.7540984 C3.09836066,41.8852459 4.47540984,39.3606557 6.7704918,37.7540984 C7.45901639,37.295082 8.14754098,36.8360656 8.95081967,36.6065574 C25.1311475,30.4098361 38.6721311,21.8032787 49,11.0163934 C49.4590164,10.557377 50.0327869,9.98360656 50.4918033,9.40983607 C51.8688525,7.91803279 53.2459016,6.31147541 54.9672131,5.50819672 C55.8852459,5.16393443 56.8032787,4.93442623 57.7213115,4.93442623 C57.9508197,4.93442623 58.295082,4.93442623 58.5245902,5.04918033 L50.4918033,13.8852459 C50.2622951,14.1147541 50.2622951,14.5737705 50.4918033,14.8032787 C50.6065574,14.9180328 50.8360656,15.0327869 50.9508197,15.0327869 C51.1803279,15.0327869 51.295082,14.9180328 51.4098361,14.8032787 L60.0163934,5.39344262 C60.5901639,5.62295082 61.1639344,5.85245902 61.6229508,6.08196721 L55.6557377,12.6229508 C55.4262295,12.852459 55.4262295,13.3114754 55.6557377,13.5409836 C55.7704918,13.6557377 56,13.7704918 56.1147541,13.7704918 C56.3442623,13.7704918 56.4590164,13.6557377 56.5737705,13.5409836 L62.6557377,6.8852459 C64.8360656,8.95081967 65.5245902,12.0491803 64.6065574,14.6885246 L64.6065574,14.6885246 Z M65.7540984,7.45901639 C65.295082,6.7704918 64.8360656,6.08196721 64.147541,5.50819672 C63.5737705,4.93442623 62.8852459,4.47540984 62.1967213,4.13114754 L63.6885246,2.86885246 L66.7868852,5.85245902 L65.7540984,7.45901639 L65.7540984,7.45901639 Z" id="Shape"></path>
            </g>
        </g>
    </g>
</svg>