<?xml version="1.0" encoding="UTF-8" standalone="no"?>
<svg width="400px" height="400px" viewBox="0 0 400 400" version="1.1" xmlns="http://www.w3.org/2000/svg" xmlns:xlink="http://www.w3.org/1999/xlink">
    <!-- Generator: Sketch 3.6.1 (26313) - http://www.bohemiancoding.com/sketch -->
    <title>Group</title>
    <desc>Created with Sketch.</desc>
    <defs></defs>
    <g id="Page-1" stroke="none" stroke-width="1" fill="none" fill-rule="evenodd">
        <g id="Group">
            <rect id="Rectangle-1" fill="#D8D8D8" x="0" y="0" width="400" height="400"></rect>
            <path d="M136.199707,107 L122.879395,72.1953125 L122.664551,72.1953125 C122.915203,74.9524877 123.040528,78.2288222 123.040528,82.0244141 L123.040528,107 L118.824219,107 L118.824219,67.7373047 L125.699219,67.7373047 L138.133301,100.125 L138.348145,100.125 L150.889649,67.7373047 L157.710938,67.7373047 L157.710938,107 L153.145508,107 L153.145508,81.7021484 C153.145508,78.8017433 153.270832,75.6507332 153.521485,72.2490234 L153.306641,72.2490234 L139.878906,107 L136.199707,107 Z M198.385156,107 L193.497461,94.512207 L177.760156,94.512207 L172.926172,107 L168.307031,107 L183.829492,67.5761719 L187.669824,67.5761719 L203.111719,107 L198.385156,107 Z M192.074121,90.4033203 L187.508692,78.237793 C186.917868,76.6980717 186.30915,74.809256 185.68252,72.5712891 C185.288637,74.2900477 184.724678,76.1788634 183.990625,78.237793 L179.371485,90.4033203 L192.074121,90.4033203 Z M238.414844,107 L233.527148,94.512207 L217.789844,94.512207 L212.955859,107 L208.336719,107 L223.85918,67.5761719 L227.699512,67.5761719 L243.141406,107 L238.414844,107 Z M232.103809,90.4033203 L227.538379,78.237793 C226.947556,76.6980717 226.338838,74.809256 225.712207,72.5712891 C225.318325,74.2900477 224.754366,76.1788634 224.020313,78.237793 L219.401172,90.4033203 L232.103809,90.4033203 Z M282.12373,107 L276.752637,107 L262.438672,87.9594727 L258.329785,91.6118164 L258.329785,107 L253.764355,107 L253.764355,67.7373047 L258.329785,67.7373047 L258.329785,87.2075195 L276.134961,67.7373047 L281.53291,67.7373047 L265.741894,84.7905273 L282.12373,107 Z M78.2851562,182 L56.3979492,182 L56.3979492,142.737305 L78.2851562,142.737305 L78.2851562,146.79248 L60.9633789,146.79248 L60.9633789,159.441406 L77.237793,159.441406 L77.237793,163.469727 L60.9633789,163.469727 L60.9633789,177.917969 L78.2851562,177.917969 L78.2851562,182 Z M114.098535,182 L92.211328,182 L92.211328,142.737305 L114.098535,142.737305 L114.098535,146.79248 L96.7767577,146.79248 L96.7767577,159.441406 L113.051172,159.441406 L113.051172,163.469727 L96.7767577,163.469727 L96.7767577,177.917969 L114.098535,177.917969 L114.098535,182 Z M158.693652,182 L153.483691,182 L132.026172,149.04834 L131.811328,149.04834 C132.097788,152.915547 132.241015,156.460433 132.241015,159.683105 L132.241015,182 L128.024707,182 L128.024707,142.737305 L133.180957,142.737305 L154.584765,175.554688 L154.799609,175.554688 C154.763802,175.071287 154.683236,173.518161 154.55791,170.895264 C154.432584,168.272366 154.387825,166.396978 154.423633,165.269043 L154.423633,142.737305 L158.693652,142.737305 L158.693652,182 Z M198.792089,182 L194.22666,182 L194.22666,142.737305 L216.113867,142.737305 L216.113867,146.79248 L198.792089,146.79248 L198.792089,161.160156 L215.066504,161.160156 L215.066504,165.215332 L198.792089,165.215332 L198.792089,182 Z M261.91748,162.314941 C261.91748,168.599153 260.328547,173.540509 257.150634,177.13916 C253.972721,180.737811 249.555041,182.537109 243.89746,182.537109 C238.114554,182.537109 233.652115,180.769142 230.510009,177.233154 C227.367904,173.697167 225.796875,168.706575 225.796875,162.26123 C225.796875,155.869597 227.37238,150.914813 230.523437,147.396729 C233.674494,143.878645 238.150361,142.119629 243.951171,142.119629 C249.590848,142.119629 253.995101,143.909976 257.164062,147.490723 C260.333023,151.07147 261.91748,156.012827 261.91748,162.314941 L261.91748,162.314941 Z M230.630859,162.314941 C230.630859,167.632351 231.763253,171.665107 234.028076,174.41333 C236.292898,177.161553 239.58266,178.535645 243.89746,178.535645 C248.248068,178.535645 251.533354,177.166029 253.753417,174.426758 C255.973481,171.687486 257.083496,167.650255 257.083496,162.314941 C257.083496,157.033339 255.977957,153.027439 253.766845,150.297119 C251.555734,147.566799 248.283875,146.20166 243.951171,146.20166 C239.600564,146.20166 236.292898,147.575751 234.028076,150.323975 C231.763253,153.072198 230.630859,157.069147 230.630859,162.314941 L230.630859,162.314941 Z M286.34414,182 L281.77871,182 L281.77871,146.79248 L269.344628,146.79248 L269.344628,142.737305 L298.778222,142.737305 L298.778222,146.79248 L286.34414,146.79248 L286.34414,182 Z M342.889941,162.314941 C342.889941,168.599153 341.301008,173.540509 338.123095,177.13916 C334.945182,180.737811 330.527502,182.537109 324.869921,182.537109 C319.087015,182.537109 314.624576,180.769142 311.48247,177.233154 C308.340364,173.697167 306.769335,168.706575 306.769335,162.26123 C306.769335,155.869597 308.34484,150.914813 311.495898,147.396729 C314.646955,143.878645 319.122822,142.119629 324.923632,142.119629 C330.563309,142.119629 334.967562,143.909976 338.136523,147.490723 C341.305484,151.07147 342.889941,156.012827 342.889941,162.314941 L342.889941,162.314941 Z M311.60332,162.314941 C311.60332,167.632351 312.735714,171.665107 315.000536,174.41333 C317.265359,177.161553 320.555121,178.535645 324.869921,178.535645 C329.220529,178.535645 332.505815,177.166029 334.725878,174.426758 C336.945941,171.687486 338.055956,167.650255 338.055956,162.314941 C338.055956,157.033339 336.950417,153.027439 334.739306,150.297119 C332.528195,147.566799 329.256336,146.20166 324.923632,146.20166 C320.573024,146.20166 317.265359,147.575751 315.000536,150.323975 C312.735714,153.072198 311.60332,157.069147 311.60332,162.314941 L311.60332,162.314941 Z M129.349952,217.737305 L134.264502,217.737305 L120.11167,257 L115.599952,257 L101.527686,217.737305 L106.36167,217.737305 L115.385108,243.142578 C116.423524,246.060887 117.247084,248.898586 117.855811,251.655762 C118.500345,248.755357 119.341808,245.863947 120.380225,242.981445 L129.349952,217.737305 Z M167.365479,257 L162.477783,244.512207 L146.740479,244.512207 L141.906494,257 L137.287354,257 L152.809815,217.576172 L156.650147,217.576172 L172.092041,257 L167.365479,257 Z M161.054444,240.40332 L156.489014,228.237793 C155.898191,226.698072 155.289473,224.809256 154.662842,222.571289 C154.26896,224.290048 153.705001,226.178863 152.970948,228.237793 L148.351807,240.40332 L161.054444,240.40332 Z M213.383936,257 L208.173975,257 L186.716455,224.04834 L186.501611,224.04834 C186.788071,227.915547 186.931299,231.460433 186.931299,234.683105 L186.931299,257 L182.71499,257 L182.71499,217.737305 L187.87124,217.737305 L209.275049,250.554688 L209.489893,250.554688 C209.454085,250.071287 209.37352,248.518161 209.248194,245.895264 C209.122867,243.272366 209.078109,241.396978 209.113916,240.269043 L209.113916,217.737305 L213.383936,217.737305 L213.383936,257 Z M243.196728,267.339355 C241.513777,267.339355 240.188921,267.097659 239.222119,266.614258 L239.222119,262.720215 C240.493284,263.07829 241.818141,263.257324 243.196728,263.257324 C244.969198,263.257324 246.316434,262.72022 247.238477,261.645996 C248.160519,260.571772 248.621533,259.023122 248.621533,257 L248.621533,217.737305 L253.186963,217.737305 L253.186963,256.624023 C253.186963,260.025733 252.327596,262.662019 250.608838,264.532959 C248.890079,266.403899 246.419401,267.339355 243.196728,267.339355 L243.196728,267.339355 Z M290.719092,257 L268.831885,257 L268.831885,217.737305 L290.719092,217.737305 L290.719092,221.79248 L273.397314,221.79248 L273.397314,234.441406 L289.671728,234.441406 L289.671728,238.469727 L273.397314,238.469727 L273.397314,252.917969 L290.719092,252.917969 L290.719092,257 Z M136.052002,304.177734 C136.052002,308.152364 134.695815,311.209381 131.983399,313.348877 C129.270983,315.488373 125.390406,316.558105 120.341553,316.558105 L115.722412,316.558105 L115.722412,332 L111.156983,332 L111.156983,292.737305 L121.335205,292.737305 C131.146452,292.737305 136.052002,296.550743 136.052002,304.177734 L136.052002,304.177734 Z M115.722412,312.637207 L119.831299,312.637207 C123.877543,312.637207 126.80476,311.98373 128.613037,310.676758 C130.421315,309.369785 131.32544,307.27508 131.32544,304.392578 C131.32544,301.796536 130.475025,299.862962 128.77417,298.591797 C127.073315,297.320632 124.423602,296.685059 120.824951,296.685059 L115.722412,296.685059 L115.722412,312.637207 Z M149.494776,332 L149.494776,292.737305 L154.060205,292.737305 L154.060205,327.864258 L171.381983,327.864258 L171.381983,332 L149.494776,332 Z M207.947315,332 L203.059619,319.512207 L187.322315,319.512207 L182.48833,332 L177.86919,332 L193.39165,292.576172 L197.231982,292.576172 L212.673877,332 L207.947315,332 Z M201.636279,315.40332 L197.07085,303.237793 C196.480026,301.698072 195.871309,299.809256 195.244678,297.571289 C194.850796,299.290048 194.286836,301.178863 193.552783,303.237793 L188.933643,315.40332 L201.636279,315.40332 Z M253.965771,332 L248.75581,332 L227.298291,299.04834 L227.083447,299.04834 C227.369907,302.915547 227.513135,306.460433 227.513135,309.683105 L227.513135,332 L223.296826,332 L223.296826,292.737305 L228.453076,292.737305 L249.856885,325.554688 L250.071728,325.554688 C250.035921,325.071287 249.955355,323.518161 249.830029,320.895264 C249.704703,318.272366 249.659944,316.396978 249.695752,315.269043 L249.695752,292.737305 L253.965771,292.737305 L253.965771,332 Z M282.071631,332 L277.506201,332 L277.506201,296.79248 L265.072119,296.79248 L265.072119,292.737305 L294.505713,292.737305 L294.505713,296.79248 L282.071631,296.79248 L282.071631,332 Z" id="MAAK-EEN-FOTO-VAN-JE" fill="#292929"></path>
        </g>
    </g>
</svg>