<?xml version="1.0" encoding="UTF-8" standalone="no"?>
<svg width="80px" height="80px" viewBox="0 0 80 80" version="1.1" xmlns="http://www.w3.org/2000/svg" xmlns:xlink="http://www.w3.org/1999/xlink">
    <!-- Generator: Sketch 3.6.1 (26313) - http://www.bohemiancoding.com/sketch -->
    <title>noun_127943_cc</title>
    <desc>Created with Sketch.</desc>
    <defs></defs>
    <g id="Page-1" stroke="none" stroke-width="1" fill="none" fill-rule="evenodd">
        <g id="noun_127943_cc" transform="translate(5.000000, 9.000000)" fill="#000000">
            <path d="M35.627756,0.163327503 C34.8898657,0.190548754 34.1510032,0.354848444 33.4665832,0.629005325 C31.9071944,1.23273377 30.6219625,2.4382463 30.1844781,4.16582352 C29.774215,5.89242855 30.2389206,8.00304766 31.8527519,10.3615746 C32.0987153,10.7455886 32.1813513,10.9915521 32.1269088,11.4854234 C32.0996875,11.8966587 31.9353878,12.4449724 31.6340097,13.2120284 C29.3085371,12.4440002 26.8741796,12.0337371 24.439822,12.0337371 C18.0933819,12.0337371 11.8023565,14.7198912 7.31571108,19.3533369 C2.85725912,24.0130317 0.25860188,30.4829397 0.25860188,37.0345114 C0.25860188,43.586083 2.85725912,50.0832122 7.31571108,54.742907 C11.8023565,59.3763527 18.0933819,62.0625068 24.439822,62.0625068 C28.1059412,62.0625068 31.7438669,61.130179 35.0259719,59.4862099 C38.308077,61.130179 41.9460027,62.0625068 45.5839284,62.0625068 C51.9293963,62.0625068 58.1941727,59.3753805 62.6808181,54.742907 C67.1392701,50.0832122 69.7388995,43.586083 69.7388995,37.0345114 C69.7388995,30.4829397 67.1392701,24.0130317 62.6808181,19.3533369 C58.1941727,14.7198912 51.9293963,12.0337371 45.5839284,12.0337371 C43.2866493,12.0337371 40.9621489,12.3905299 38.7727826,13.0759221 C38.1155839,10.8554458 36.6932735,8.96356893 35.7910835,7.45570608 C35.2719354,6.60601419 34.9705572,5.86617949 34.943336,5.42772292 C34.9161147,5.0164876 34.9977785,4.79774541 35.6540051,4.41373134 C36.0360748,4.24943165 36.5017526,4.19401696 37.0763154,4.44095259 C37.6499061,4.68788822 38.3071048,5.23620198 38.9633314,6.25019356 C39.2637373,6.74406482 40.1941208,6.60698638 40.3593927,6.03145137 C40.5781349,5.18078729 40.8250705,4.68788822 41.2343614,4.46914603 C41.6164311,4.30484633 41.8079521,3.75653257 41.5892099,3.39973975 C40.2777289,1.09468315 37.8715648,0.0806915641 35.627756,0.163327503 L35.627756,0.163327503 L35.627756,0.163327503 Z M35.6831707,1.72563285 C37.2697807,1.64396909 38.883612,2.3293613 39.9228805,3.72736695 C39.7313595,3.91888789 39.4863683,4.08318758 39.3755389,4.33012321 C38.8281973,3.7545882 38.2818279,3.28891038 37.6800439,3.01378131 C36.7496604,2.62976724 35.7648345,2.62976724 34.9715294,3.01378131 C34.9715294,3.04100256 34.9715294,3.04100256 34.9443082,3.04100256 C33.9050397,3.61653757 33.3576982,4.57608665 33.4121407,5.53563573 C33.4665832,6.49518481 33.932261,7.34487671 34.4786304,8.24998329 C35.4634563,9.89492457 36.7759095,11.7041655 37.3242232,13.567849 C36.5309182,13.8692271 35.7376132,14.22602 34.9715294,14.6090618 C34.3425241,14.2804625 33.7135188,14.0063056 33.05632,13.75937 C33.3839472,12.9368993 33.6036616,12.2515071 33.6853253,11.6215296 C33.7397678,10.8262802 33.5210257,10.1136668 33.1379838,9.53813175 L33.1379838,9.5109105 C31.6884522,7.37307014 31.4142953,5.70090761 31.6884522,4.52164415 C31.9888581,3.34335288 32.8375778,2.49366099 34.0139247,2.05423223 C34.5340451,1.86271129 35.0804144,1.7528541 35.6831707,1.72563285 L35.6831707,1.72563285 L35.6831707,1.72563285 Z M24.439822,13.5950703 C26.7925158,13.5950703 29.1724309,14.0063056 31.4152675,14.7733615 C29.5282515,14.827804 27.5585996,15.0202972 25.6161689,15.485975 C22.4429489,16.2812244 19.379586,17.9261657 17.1095281,21.1606335 C16.8635647,21.4892329 16.9180072,22.0375467 17.2728557,22.2844823 C17.601455,22.5304458 18.1478244,22.4215608 18.3665666,22.0375467 C20.3916332,19.1598716 23.0719542,17.7336725 25.9992108,16.9938378 C27.8590055,16.52816 29.8286575,16.3638603 31.7156734,16.2812244 C29.5272793,17.9533869 28.2420474,20.3381629 27.6130421,22.1201826 C27.4759637,22.5041967 27.7219271,22.9698745 28.104969,23.106953 C28.4880109,23.2440314 28.9527165,23.0252892 29.0897949,22.6412751 C29.8286575,20.5034348 31.6884522,17.4060453 34.9987507,16.2812244 C38.308077,17.4050732 40.1960652,20.5024626 40.9339555,22.6412751 C41.0156192,23.0525105 41.5357396,23.3266673 41.9460027,23.1895889 C42.3562658,23.0525105 42.5759802,22.5041967 42.3844593,22.1201826 C41.7544818,20.3381629 40.4682777,17.9533869 38.2808558,16.2812244 C40.195093,16.3628881 42.1637727,16.52816 44.0245396,16.9938378 C46.9527684,17.7346447 49.604896,19.1598716 51.6289904,22.0375467 C51.8477326,22.3943395 52.3678529,22.4760033 52.6964523,22.2290676 C53.0513007,22.0093532 53.1329645,21.4892329 52.8879732,21.1596614 C50.6431922,17.9251935 47.5526081,16.2802522 44.3793881,15.4850028 C42.4107083,14.9921037 40.412863,14.8268319 38.4986258,14.7723894 C38.5248748,14.7451681 38.5540404,14.7451681 38.5802895,14.7169747 C40.8513196,13.97714 43.2302624,13.5931259 45.5829562,13.5931259 C51.4919119,13.5931259 57.3726743,16.1149803 61.5579415,20.4460757 C65.7451532,24.7771711 68.2057598,30.8902862 68.2057598,37.0306226 C68.2057598,43.170959 65.7461254,49.3142119 61.5589137,53.6453073 C57.3736464,57.9764027 51.4928841,60.5264506 45.5839284,60.5264506 C43.2049855,60.4992293 40.8250705,60.087994 38.5550126,59.2917724 C40.4420286,59.2373299 42.4116805,59.1002515 44.3803602,58.6073524 C47.5535803,57.812103 50.6441644,56.1671617 52.8889454,52.9326939 C53.2437939,52.467016 52.8053373,51.6445454 52.2035532,51.7262091 C51.958562,51.7262091 51.7398198,51.8642598 51.6299626,52.0557807 C49.6058682,54.9334558 46.9527684,56.3596549 44.0255118,57.0994896 C42.1647449,57.5651674 40.1960652,57.7304393 38.308077,57.7848818 C40.4692499,56.1127192 41.7544818,53.7551645 42.3844593,51.9731448 C42.5759802,51.4530244 42.0558599,50.8211026 41.5094905,50.9319319 C41.2363058,50.9873466 41.0156192,51.2060888 40.9339555,51.4792735 C40.195093,53.5908648 38.308077,56.687282 35.0531932,57.8393243 C35.0259719,57.812103 34.9987507,57.812103 34.9715294,57.812103 C31.6894244,56.661033 29.8286575,53.5908648 29.0897949,51.4792735 C28.9809099,51.1234529 28.5978681,50.8765172 28.2148262,50.9319319 C27.7773418,51.0145679 27.4487424,51.5619094 27.6130421,51.9731448 C28.2420474,53.7551645 29.5272793,56.1127192 31.6884522,57.7848818 C29.800464,57.7304393 27.8590055,57.5651674 25.9982386,57.0994896 C23.070982,56.3596549 20.390661,54.9334558 18.3655944,52.0557807 C18.228516,51.8088451 17.92811,51.6707945 17.6549253,51.7262091 C17.1075838,51.7816238 16.8071778,52.5214585 17.1075838,52.9326939 C19.3776416,56.1671617 22.4410045,57.812103 25.6142246,58.6073524 C27.5838765,59.1002515 29.6079709,59.2373299 31.5231803,59.2917724 C29.224929,60.0870218 26.845014,60.5264506 24.4378777,60.5264506 C18.5289219,60.5264506 12.6209384,57.9764027 8.4356711,53.6453073 C4.25040383,49.3142119 1.78882504,43.1738755 1.78882504,37.0335392 C1.78882504,30.8932028 4.25040383,24.7800877 8.4356711,20.4489923 C12.6228827,16.1178969 18.5318385,13.5950703 24.439822,13.5950703 L24.439822,13.5950703 L24.439822,13.5950703 Z" id="Shape"></path>
        </g>
    </g>
</svg>