<?xml version="1.0" encoding="UTF-8" standalone="no"?>
<svg width="80px" height="80px" viewBox="0 0 80 80" version="1.1" xmlns="http://www.w3.org/2000/svg" xmlns:xlink="http://www.w3.org/1999/xlink">
    <!-- Generator: Sketch 3.6.1 (26313) - http://www.bohemiancoding.com/sketch -->
    <title>seed</title>
    <desc>Created with Sketch.</desc>
    <defs></defs>
    <g id="Page-1" stroke="none" stroke-width="1" fill="none" fill-rule="evenodd">
        <g id="seed" transform="translate(19.000000, 5.000000)" fill="#000000">
            <g id="Page-1">
                <g id="seed">
                    <g id="Page-1">
                        <g id="noun_399890_cc">
                            <g id="Group">
                                <path d="M40.0930303,35.5488637 L24.7423485,2.68545455 C24.1600758,1.44136363 22.895303,0.637954545 21.5207575,0.637954545 C20.1462121,0.637954545 18.8814394,1.44136363 18.2991667,2.68545455 L2.89280303,35.6761363 C1.12530303,39.8809091 0.301212119,43.3872727 0.301212119,46.7106818 C0.301212119,59.4665909 9.81962119,69.8425 21.5207575,69.8425 C33.221894,69.8425 42.740303,59.4665909 42.740303,46.7106818 C42.7387121,43.3443182 41.1987121,37.9447727 40.0930303,35.5488637 L40.0930303,35.5488637 L40.0930303,35.5488637 L40.0930303,35.5488637 Z M21.5191667,68.25 C10.6962121,68.25 1.8905303,58.5868182 1.8905303,46.7090909 C1.8905303,43.6052273 2.67484848,40.2945455 4.34530303,36.3204545 L19.7389394,3.35840909 C20.060303,2.67113637 20.760303,2.22727273 21.5191667,2.22727273 C22.2780303,2.22727273 22.9780303,2.67113637 23.299394,3.35840909 L38.6484848,36.2186363 C39.6682575,38.4236363 41.1462121,43.6084091 41.1462121,46.7090909 C41.147803,58.5868182 32.3421212,68.25 21.5191667,68.25 L21.5191667,68.25 L21.5191667,68.25 L21.5191667,68.25 Z" id="Shape"></path>
                                <path d="M21.5191667,23.4054545 C13.5232575,23.4054545 7.0164394,33.1768182 7.0164394,45.1865909 C7.0164394,57.1963637 13.5232575,66.9677273 21.5191667,66.9677273 C29.5150758,66.9677273 36.021894,57.1963637 36.021894,45.1865909 C36.021894,33.1768182 29.5166667,23.4054545 21.5191667,23.4054545 L21.5191667,23.4054545 L21.5191667,23.4054545 L21.5191667,23.4054545 Z M21.5191667,65.3784091 C14.3982575,65.3784091 8.60734849,56.3213637 8.60734849,45.1881818 C8.60734849,34.055 14.3998485,24.9979545 21.5191667,24.9979545 C28.6384848,24.9979545 34.4309848,34.055 34.4309848,45.1881818 C34.4309848,56.3213637 28.6400758,65.3784091 21.5191667,65.3784091 L21.5191667,65.3784091 L21.5191667,65.3784091 L21.5191667,65.3784091 Z" id="Shape"></path>
                                <path d="M25.2021212,44.3911363 C22.1221212,44.3911363 19.711894,47.8975 19.711894,52.3743182 C19.711894,56.8511363 22.1237121,60.3590909 25.2021212,60.3590909 C28.2805303,60.3590909 30.6907575,56.8527273 30.6907575,52.3743182 C30.6907575,47.8975 28.2789394,44.3911363 25.2021212,44.3911363 L25.2021212,44.3911363 L25.2021212,44.3911363 L25.2021212,44.3911363 Z M25.2021212,58.7665909 C23.087803,58.7665909 21.302803,55.8393182 21.302803,52.3727273 C21.302803,48.9077273 23.087803,45.9804545 25.2021212,45.9804545 C27.3148485,45.9804545 29.0998485,48.9077273 29.0998485,52.3727273 C29.0998485,55.8409091 27.3148485,58.7665909 25.2021212,58.7665909 L25.2021212,58.7665909 L25.2021212,58.7665909 L25.2021212,58.7665909 Z" id="Shape"></path>
                            </g>
                        </g>
                    </g>
                </g>
            </g>
        </g>
    </g>
</svg>