<?xml version="1.0" encoding="utf-8"?>
<!-- Generator: Adobe Illustrator 16.0.0, SVG Export Plug-In . SVG Version: 6.00 Build 0)  -->
<!DOCTYPE svg PUBLIC "-//W3C//DTD SVG 1.1//EN" "http://www.w3.org/Graphics/SVG/1.1/DTD/svg11.dtd">
<svg version="1.1" id="Layer_1" xmlns="http://www.w3.org/2000/svg" xmlns:xlink="http://www.w3.org/1999/xlink" x="0px" y="0px"
	 width="80px" height="80px" viewBox="0 0 80 80" enable-background="new 0 0 80 80" xml:space="preserve">
<title>seed</title>
<desc>Created with Sketch.</desc>
<g id="Page-1_2_">
	<g id="seed_1_" transform="translate(19.000000, 5.000000)">
		<g id="Page-1_1_">
			<g id="seed">
				<g id="Page-1">
					<g id="noun_399890_cc">
						<g id="Group">
							<path id="Shape" d="M41.644,35.229L24.581,10.891c-0.647-0.922-2.053-1.517-3.58-1.517c-1.529,0-2.935,0.595-3.582,1.517
								L0.295,35.322c-1.964,3.114-2.88,5.711-2.88,8.172c0,9.446,10.58,17.131,23.585,17.131c13.004,0,23.584-7.685,23.584-17.131
								C44.582,41.002,42.872,37.003,41.644,35.229L41.644,35.229L41.644,35.229L41.644,35.229z M20.998,59.445
								c-12.029,0-21.816-7.155-21.816-15.952c0-2.298,0.872-4.751,2.728-7.693l17.109-24.411c0.358-0.508,1.136-0.837,1.979-0.837
								c0.844,0,1.623,0.329,1.979,0.837l17.061,24.335c1.133,1.633,2.776,5.472,2.776,7.769
								C42.815,52.29,33.027,59.445,20.998,59.445L20.998,59.445L20.998,59.445L20.998,59.445z"/>
							<path id="Shape_1_" d="M20.998,26.235c-8.887,0-16.119,7.238-16.119,16.131s7.232,16.13,16.119,16.13
								c8.888,0,16.119-7.236,16.119-16.13S29.888,26.235,20.998,26.235L20.998,26.235L20.998,26.235L20.998,26.235z M20.998,57.319
								c-7.914,0-14.351-6.707-14.351-14.953c0-8.243,6.438-14.952,14.351-14.952c7.913,0,14.353,6.708,14.353,14.952
								C35.351,50.612,28.914,57.319,20.998,57.319L20.998,57.319L20.998,57.319L20.998,57.319z"/>
							<path id="Shape_2_" d="M25.092,41.776c-3.423,0-6.102,2.597-6.102,5.912c0,3.316,2.68,5.914,6.102,5.914
								s6.101-2.597,6.101-5.914C31.192,44.373,28.512,41.776,25.092,41.776L25.092,41.776L25.092,41.776L25.092,41.776z
								 M25.092,52.423c-2.351,0-4.334-2.167-4.334-4.735c0-2.565,1.983-4.732,4.334-4.732c2.348,0,4.332,2.167,4.332,4.732
								C29.424,50.256,27.439,52.423,25.092,52.423L25.092,52.423L25.092,52.423L25.092,52.423z"/>
						</g>
					</g>
				</g>
			</g>
		</g>
	</g>
</g>
</svg>
