<?xml version="1.0" encoding="UTF-8" standalone="no"?>
<svg width="80px" height="80px" viewBox="0 0 80 80" version="1.1" xmlns="http://www.w3.org/2000/svg" xmlns:xlink="http://www.w3.org/1999/xlink">
    <!-- Generator: Sketch 3.6.1 (26313) - http://www.bohemiancoding.com/sketch -->
    <title>sla</title>
    <desc>Created with Sketch.</desc>
    <defs></defs>
    <g id="Page-1" stroke="none" stroke-width="1" fill="none" fill-rule="evenodd">
        <g id="sla" transform="translate(5.000000, 12.000000)" fill="#000000">
            <g id="Page-1">
                <g id="sla">
                    <g id="Page-1">
                        <g id="sla">
                            <path d="M66.2144737,32.3796053 C66.5985526,31.8011842 66.8859211,31.1638158 67.0682895,30.4877632 C67.8907895,27.4169737 66.3701316,24.2605263 63.6088158,22.9240789 C64.2038158,18.4459211 61.3918421,14.1003947 56.9136842,12.9002632 C56.1372368,12.6921053 55.3405263,12.5861842 54.5438158,12.5861842 C54.0197368,12.5861842 53.5048684,12.6359211 53.0010526,12.7225 C52.0836842,11.3501316 50.8310526,10.2540789 49.3481579,9.55131579 C49.1436842,6.13513158 46.2994737,3.41894737 42.8335526,3.41894737 C42.3877632,3.41894737 41.9447368,3.46776316 41.4971053,3.56815789 C39.7775,1.80342105 37.4546053,0.807763158 35.0009211,0.807763158 C32.5463158,0.807763158 30.2225,1.80434211 28.5028947,3.56815789 C28.0543421,3.46960526 27.6076316,3.41894737 27.1682895,3.41894737 C23.7005263,3.41894737 20.8553947,6.13513158 20.6518421,9.55223684 C19.1698684,10.2559211 17.9163158,11.3501316 17.0007895,12.7234211 C16.4969737,12.6359211 15.9830263,12.5871053 15.4589474,12.5871053 C14.6622368,12.5871053 13.8646053,12.6921053 13.0881579,12.9011842 C10.7302632,13.5330263 8.75921053,15.0435526 7.53881579,17.1582895 C6.51921053,18.9239474 6.125,20.9346053 6.39118421,22.9231579 C5.22144737,23.4859211 4.24881579,24.3857895 3.58565789,25.5343421 C2.71342105,27.0448684 2.48223684,28.8031579 2.93355263,30.4868421 C3.115,31.1619737 3.40328947,31.8002632 3.78736842,32.3805263 C0.928421053,34.6039474 -0.371184211,38.3268421 0.593157895,41.9263158 C1.66157895,45.9153947 5.28960526,48.7006579 9.41592105,48.7006579 C10.2126316,48.7006579 11.0093421,48.5956579 11.7857895,48.3875 C11.9985526,48.3303947 12.2094737,48.2640789 12.4213158,48.1894737 C16.6185526,53.3178947 22.9627632,56.3509211 29.5934211,56.35 C31.4097368,56.35 33.2260526,56.1151316 35.0018421,55.6693421 C36.7776316,56.1151316 38.5939474,56.35 40.4093421,56.35 C47.0409211,56.35 53.3860526,53.3178947 57.5832895,48.1894737 C57.7951316,48.265 58.0060526,48.3303947 58.2188158,48.3875 C58.9943421,48.5956579 59.7910526,48.7006579 60.5877632,48.7006579 L60.5886842,48.7006579 C64.7140789,48.7006579 68.3421053,45.9153947 69.4096053,41.9263158 C70.3721053,38.3268421 69.0725,34.6039474 66.2144737,32.3796053 L66.2144737,32.3796053 L66.2144737,32.3796053 L66.2144737,32.3796053 Z M22.4221053,11.6457895 C22.9876316,11.4486842 23.3459211,10.8923684 23.2934211,10.2964474 C23.2860526,10.2181579 23.2759211,10.1407895 23.2657895,10.0643421 C23.2602632,10.0238158 23.2528947,9.98421053 23.2510526,9.94644737 C23.2510526,7.7875 25.0084211,6.03105263 27.1682895,6.03105263 C27.5928947,6.03105263 28.0239474,6.11210526 28.4863158,6.27973684 C29.0094737,6.47223684 29.5971053,6.30552632 29.9471053,5.87355263 C31.2052632,4.31513158 33.0473684,3.42078947 35.0009211,3.42078947 C36.9544737,3.42078947 38.7965789,4.31513158 40.0538158,5.87263158 C40.4047368,6.30644737 40.9914474,6.47039474 41.5136842,6.28065789 C41.9778947,6.11210526 42.4107895,6.03105263 42.8344737,6.03105263 C44.9943421,6.03105263 46.7498684,7.7875 46.7507895,9.94368421 C46.7489474,9.98421053 46.7415789,10.0238158 46.7360526,10.0634211 C46.725,10.1417105 46.7157895,10.22 46.7084211,10.3001316 C46.6568421,10.8951316 47.0160526,11.4486842 47.5797368,11.6457895 C48.6868421,12.0307895 49.6539474,12.7040789 50.4,13.5919737 C49.4513158,14.0773684 48.5919737,14.7239474 47.8652632,15.5022368 C47.8247368,15.5455263 47.7878947,15.5915789 47.7482895,15.6348684 C47.6285526,15.7684211 47.5125,15.9028947 47.4010526,16.0428947 C47.3356579,16.1248684 47.2721053,16.2096053 47.2094737,16.2925 C47.1275,16.4030263 47.0482895,16.5153947 46.9709211,16.6305263 C46.9064474,16.7263158 46.8419737,16.8211842 46.7821053,16.9188158 C46.7084211,17.0376316 46.6393421,17.1601316 46.5711842,17.2826316 C46.5186842,17.3765789 46.4652632,17.4686842 46.4155263,17.5644737 C46.3132895,17.7652632 46.2175,17.9688158 46.1290789,18.1788158 C46.1217105,18.1972368 46.1115789,18.2138158 46.1042105,18.2331579 C42.9965789,18.0056579 40.1311842,20.0522368 39.3271053,23.0557895 C39.1539474,23.6996053 39.0913158,24.3627632 39.1207895,25.025 C39.1226316,25.0572368 39.1171053,25.0903947 39.1189474,25.1235526 C39.0655263,25.1309211 39.0167105,25.1484211 38.9632895,25.1567105 C38.6142105,25.2138158 38.2688158,25.2865789 37.9298684,25.3823684 C37.7521053,25.4330263 37.5817105,25.4993421 37.4076316,25.5601316 C37.2031579,25.6310526 37.0014474,25.7019737 36.8025,25.7885526 C36.5961842,25.8769737 36.3990789,25.9764474 36.2010526,26.0796053 C36.0536842,26.1569737 35.9081579,26.2361842 35.7644737,26.3209211 C35.5434211,26.4517105 35.3297368,26.5889474 35.1206579,26.7372368 C35.0819737,26.7648684 35.0396053,26.7869737 35.0018421,26.8146053 C34.9456579,26.7731579 34.8839474,26.7418421 34.8277632,26.7022368 C34.6242105,26.5576316 34.4142105,26.4222368 34.1986842,26.2960526 C34.0909211,26.2325 33.9813158,26.1717105 33.8717105,26.1136842 C33.6340789,25.9856579 33.3918421,25.8668421 33.1440789,25.7609211 C33.1017105,25.7425 33.0621053,25.7213158 33.0197368,25.7038158 C32.7130263,25.5776316 32.3980263,25.4744737 32.0775,25.3823684 C32.0139474,25.3639474 31.9503947,25.3473684 31.8868421,25.3307895 C31.5589474,25.2442105 31.2255263,25.1696053 30.8847368,25.1207895 C30.9271053,24.4263158 30.8589474,23.7290789 30.6775,23.0530263 C29.8725,20.0494737 27.0015789,18.0038158 23.9003947,18.2313158 C23.8838158,18.1926316 23.8635526,18.1567105 23.8469737,18.1180263 C23.7668421,17.9310526 23.6811842,17.7459211 23.5890789,17.5644737 C23.5393421,17.4677632 23.4840789,17.3738158 23.4315789,17.2780263 C23.3634211,17.1564474 23.2943421,17.0339474 23.2206579,16.9160526 C23.1607895,16.8202632 23.0981579,16.7253947 23.0346053,16.6305263 C22.9553947,16.5135526 22.8743421,16.3984211 22.7896053,16.2842105 C22.7297368,16.2031579 22.6689474,16.1221053 22.6053947,16.0438158 C22.4902632,15.8982895 22.3686842,15.7564474 22.2443421,15.6192105 C22.2093421,15.5805263 22.1761842,15.54 22.1411842,15.5022368 C21.4135526,14.7211842 20.5542105,14.0746053 19.6036842,13.5882895 C20.3469737,12.7040789 21.3140789,12.0307895 22.4221053,11.6457895 L22.4221053,11.6457895 L22.4221053,11.6457895 L22.4221053,11.6457895 Z M13.8830263,45.8214474 C13.6297368,45.4806579 13.2364474,45.2946053 12.8348684,45.2946053 C12.6414474,45.2946053 12.4461842,45.3378947 12.2638158,45.4272368 C11.865,45.6215789 11.4873684,45.7652632 11.1088158,45.8675 C10.5534211,46.0157895 9.98328947,46.0913158 9.415,46.0913158 C6.46855263,46.0913158 3.87763158,44.1009211 3.115,41.2511842 C2.3275,38.3102632 3.65934211,35.2523684 6.35526316,33.8173684 C6.73105263,33.6175 6.98526316,33.2472368 7.03684211,32.8244737 C7.08934211,32.4026316 6.93184211,31.9817105 6.61592105,31.6961842 C6.05039474,31.185 5.64973684,30.5338158 5.45539474,29.8117105 C5.18460526,28.8022368 5.32368421,27.7476316 5.84684211,26.8413158 C6.37,25.935 7.21460526,25.2875 8.225,25.0176316 C8.55934211,24.9273684 8.84486842,24.7090789 9.01802632,24.4097368 C9.19118421,24.1094737 9.23815789,23.7530263 9.14881579,23.4186842 C8.6975,21.735 8.92960526,19.9757895 9.80092105,18.4652632 C10.6722368,16.9556579 12.0805263,15.8752632 13.7642105,15.4248684 C14.3196053,15.2756579 14.8897368,15.2001316 15.4589474,15.2001316 C16.0557895,15.2001316 16.6314474,15.3014474 17.1877632,15.4552632 C17.2107895,15.4635526 17.2319737,15.4764474 17.2559211,15.4838158 C18.2939474,15.7840789 19.2057895,16.3219737 19.9518421,17.0265789 C20.0098684,17.0818421 20.0743421,17.1297368 20.1305263,17.1877632 C20.2253947,17.2835526 20.3064474,17.3913158 20.3948684,17.4926316 C20.5228947,17.6418421 20.6490789,17.7919737 20.7632895,17.9531579 C20.8323684,18.0489474 20.8968421,18.1502632 20.9603947,18.2497368 C21.0792105,18.4376316 21.1888158,18.6328947 21.2882895,18.8346053 C21.3334211,18.9257895 21.3822368,19.0151316 21.4227632,19.1090789 C21.5535526,19.4056579 21.6686842,19.7114474 21.7543421,20.0319737 C21.7552632,20.0347368 21.7561842,20.0375 21.7571053,20.0402632 C21.8022368,20.2088158 21.8796053,20.3589474 21.9790789,20.4888158 C21.9809211,20.4925 21.9827632,20.4952632 21.9846053,20.4980263 C22.0896053,20.6334211 22.2185526,20.7476316 22.365,20.8314474 C22.365,20.8314474 22.365,20.8314474 22.3659211,20.8323684 L22.3659211,20.8323684 C22.6560526,21 23.0097368,21.0571053 23.3560526,20.9631579 C23.6894737,20.8728947 24.0321053,20.8286842 24.3728947,20.8286842 C24.8140789,20.8286842 25.2432895,20.9032895 25.6439474,21.0414474 C26.8477632,21.4568421 27.8075,22.4488158 28.1510526,23.7318421 C28.3444737,24.4539474 28.3223684,25.2184211 28.0884211,25.9423684 C28.0552632,26.0436842 28.0359211,26.1477632 28.0285526,26.2518421 C28.0064474,26.5631579 28.0957895,26.8763158 28.2882895,27.1314474 C28.3177632,27.1710526 28.3564474,27.2005263 28.3896053,27.2364474 C28.5719737,27.4298684 28.7994737,27.5680263 29.0610526,27.6214474 C29.1623684,27.6426316 29.2682895,27.6527632 29.3751316,27.6490789 L29.5961842,27.6453947 C29.7647368,27.6453947 29.9314474,27.6573684 30.0972368,27.6693421 C30.1386842,27.6730263 30.1801316,27.6721053 30.2215789,27.6757895 C30.3440789,27.6877632 30.4647368,27.7098684 30.5863158,27.7292105 C30.6728947,27.7430263 30.7603947,27.7513158 30.8469737,27.7688158 C30.9390789,27.7872368 31.0293421,27.8139474 31.1205263,27.8351316 C31.2338158,27.8627632 31.3480263,27.8885526 31.4594737,27.9217105 C31.5230263,27.9410526 31.5847368,27.9668421 31.6473684,27.9871053 C31.7836842,28.0331579 31.9209211,28.0792105 32.0526316,28.1335526 C32.0913158,28.1492105 32.1281579,28.1685526 32.1659211,28.1860526 C32.3197368,28.2523684 32.4726316,28.3214474 32.62,28.3997368 C32.6384211,28.4098684 32.655,28.4209211 32.6734211,28.4301316 C32.8235526,28.5121053 32.9709211,28.5996053 33.1146053,28.6917105 C32.4265789,29.6035526 31.8859211,30.6388158 31.5773684,31.7901316 C30.8230263,34.6057895 31.4806579,37.4702632 33.1072368,39.6393421 C32.5564474,39.9948684 31.9503947,40.2813158 31.2835526,40.46 C29.9286842,40.8219737 30.1442105,42.4623684 30.2722368,43.4423684 C30.4988158,45.1702632 31.1325,47.9803947 31.8490789,50.4340789 C32.1511842,51.4684211 32.4219737,52.2964474 32.6743421,52.9697368 C30.9243421,52.4207895 28.9238158,50.7371053 26.9315789,48.0725 C25.5573684,46.2359211 24.2725,44.0318421 23.1064474,41.5882895 L25.9175,35.5572368 C26.2223684,34.9042105 25.9396053,34.1268421 25.2856579,33.8219737 C24.6326316,33.5189474 23.8543421,33.8007895 23.5503947,34.4547368 L21.7073684,38.4088158 C20.8996053,36.3825 20.1802632,34.2244737 19.5613158,31.9872368 L22.9765789,26.0722368 C23.3376316,25.4468421 23.1230263,24.6492105 22.4985526,24.2881579 C21.8722368,23.9271053 21.0764474,24.1417105 20.7144737,24.7661842 L17.6740789,30.0309211 L12.4102632,26.9923684 C11.7857895,26.6313158 10.9881579,26.8459211 10.6271053,27.4703947 C10.2660526,28.0948684 10.4806579,28.8934211 11.1051316,29.2544737 L17.0440789,32.6826316 C17.6639474,34.9226316 18.3851316,37.0843421 19.1919737,39.1318421 L15.4736842,37.3965789 C14.8197368,37.0907895 14.0442105,37.3735526 13.7384211,38.0275 C13.4335526,38.6814474 13.7163158,39.4588158 14.3702632,39.7627632 L20.7706579,42.7469737 C22.0085526,45.3369737 23.3763158,47.6782895 24.8426316,49.6382895 C26.1284211,51.3569737 27.4409211,52.7072368 28.7478947,53.7157895 C22.9065789,53.4578947 17.3996053,50.5528947 13.8830263,45.8214474 L13.8830263,45.8214474 L13.8830263,45.8214474 L13.8830263,45.8214474 Z M35,51.7521053 C34.1084211,49.2063158 32.9828947,44.5071053 32.8088158,42.7110526 C33.6055263,42.4126316 34.3285526,41.9990789 34.9871053,41.5109211 C35.6521053,42.0018421 36.3898684,42.4098684 37.1939474,42.7110526 C37.0180263,44.5061842 35.8925,49.2072368 35,51.7521053 L35,51.7521053 L35,51.7521053 Z M66.8859211,41.2511842 C66.1232895,44.1009211 63.5314474,46.0903947 60.5859211,46.0903947 C60.0176316,46.0903947 59.4475,46.0148684 58.8921053,45.8665789 C58.5153947,45.7652632 58.1359211,45.6215789 57.7334211,45.4263158 C57.1706579,45.1536842 56.4909211,45.3203947 56.1169737,45.8232895 C52.5902632,50.5685526 47.0575,53.4753947 41.1959211,53.7167105 C44.0438158,51.5246053 46.8640789,47.6930263 49.2394737,42.7405263 L55.6297368,39.7627632 C56.2836842,39.4578947 56.5664474,38.6805263 56.2625,38.0275 C55.9567105,37.3744737 55.1802632,37.0917105 54.5272368,37.3947368 L50.8126316,39.1263158 C51.6102632,37.1055263 52.3332895,34.9465789 52.9605263,32.6780263 L58.8930263,29.2526316 C59.5175,28.8915789 59.7311842,28.0930263 59.3710526,27.4685526 C59.0090789,26.8431579 58.2105263,26.6313158 57.5869737,26.9905263 L52.3222368,30.03 L49.2827632,24.7643421 C48.9207895,24.1380263 48.1231579,23.9271053 47.4986842,24.2863158 C46.8742105,24.6455263 46.6605263,25.445 47.0206579,26.0694737 L50.4396053,31.9927632 C49.8418421,34.1406579 49.1040789,36.2913158 48.2668421,38.3572368 L46.4468421,34.4538158 C46.1410526,33.8007895 45.3646053,33.5180263 44.7115789,33.8210526 C44.0576316,34.1259211 43.7748684,34.9032895 44.0788158,35.5563158 L46.865,41.5339474 C44.0410526,47.4369737 40.4894737,52.1057895 37.3026316,53.0167105 C37.5623684,52.3332895 37.8405263,51.4886842 38.1509211,50.4248684 C38.8675,47.9647368 39.5021053,45.1527632 39.7268421,43.4285526 C39.8548684,42.4531579 40.0676316,40.8210526 38.7146053,40.4590789 C35.2385526,39.5260526 33.1680263,35.9403947 34.0982895,32.4643421 C34.4344737,31.2107895 35.1409211,30.1405263 36.0647368,29.3171053 C36.2756579,29.1292105 36.4957895,28.9551316 36.7242105,28.7985526 C36.8338158,28.7239474 36.9443421,28.6511842 37.0576316,28.5839474 C37.1828947,28.5084211 37.3072368,28.4319737 37.4352632,28.3665789 C37.6581579,28.2523684 37.8893421,28.1528947 38.1251316,28.0644737 C38.2218421,28.0276316 38.3203947,27.9935526 38.4189474,27.9622368 C38.6869737,27.8765789 38.9605263,27.8038158 39.2414474,27.7522368 C39.3068421,27.7402632 39.3740789,27.7328947 39.4394737,27.7236842 C39.7452632,27.6785526 40.0547368,27.6472368 40.3706579,27.6463158 C40.3817105,27.6463158 40.3909211,27.6444737 40.4019737,27.6444737 L40.6202632,27.6481579 C40.6359211,27.6490789 40.6506579,27.6490789 40.6653947,27.6490789 C40.6727632,27.65 40.6792105,27.65 40.6838158,27.6490789 C41.405,27.6490789 41.9898684,27.0642105 41.9898684,26.3439474 C41.9898684,26.1707895 41.9502632,26.0096053 41.8894737,25.8585526 C41.8563158,25.7517105 41.8314474,25.6421053 41.8084211,25.5325 C41.7936842,25.4661842 41.7780263,25.3989474 41.7669737,25.3317105 C41.7494737,25.2230263 41.7421053,25.1143421 41.7347368,25.0056579 C41.7292105,24.9338158 41.72,24.8628947 41.7190789,24.7910526 C41.7172368,24.6777632 41.7255263,24.5644737 41.7338158,24.4521053 C41.7384211,24.3867105 41.7384211,24.3203947 41.7457895,24.2559211 C41.7678947,24.08 41.8001316,23.9031579 41.8461842,23.7309211 C41.9603947,23.3035526 42.1436842,22.9084211 42.3813158,22.5565789 C42.4144737,22.5059211 42.4577632,22.4635526 42.4936842,22.4156579 C42.5848684,22.2940789 42.6732895,22.1715789 42.7773684,22.0619737 C43.4994737,21.2947368 44.5209211,20.8286842 45.6243421,20.8286842 C45.9651316,20.8286842 46.3077632,20.8738158 46.6411842,20.9631579 C46.8069737,21.0073684 46.9792105,21.0175 47.1486842,20.9953947 C47.2463158,20.9825 47.3365789,20.9355263 47.4305263,20.9005263 C47.4968421,20.8756579 47.5686842,20.8682895 47.6322368,20.8323684 C47.6331579,20.8323684 47.6331579,20.8314474 47.6340789,20.8314474 C47.7206579,20.7807895 47.7823684,20.7043421 47.8542105,20.6380263 C47.9067105,20.5882895 47.9721053,20.5532895 48.0153947,20.4961842 C48.1194737,20.3617105 48.1968421,20.2069737 48.2419737,20.0384211 C48.2438158,20.0319737 48.2465789,20.0255263 48.2484211,20.0190789 C48.335,19.7022368 48.4482895,19.3992105 48.5763158,19.1063158 C48.6168421,19.0151316 48.6638158,18.9294737 48.7071053,18.8410526 C48.8093421,18.6338158 48.9217105,18.4348684 49.0442105,18.2414474 C49.1040789,18.1465789 49.1648684,18.0517105 49.2302632,17.9596053 C49.3509211,17.7901316 49.4826316,17.6326316 49.6171053,17.4760526 C49.7,17.3811842 49.7764474,17.2817105 49.8657895,17.1914474 C49.9422368,17.1113158 50.0306579,17.0440789 50.1117105,16.9685526 C50.8467105,16.2943421 51.7364474,15.7757895 52.745,15.4838158 C52.7698684,15.4764474 52.7928947,15.4626316 52.8168421,15.4534211 C53.3722368,15.3005263 53.9469737,15.1992105 54.5419737,15.1992105 C55.1102632,15.1992105 55.6803947,15.2747368 56.2357895,15.4239474 C59.7118421,16.3560526 61.7823684,19.9417105 60.8521053,23.4186842 C60.6660526,24.1159211 61.0786842,24.8306579 61.775,25.0176316 C63.8602632,25.5757895 65.1018421,27.7282895 64.5446053,29.8126316 C64.3511842,30.5338158 63.9496053,31.185 63.3840789,31.6961842 C63.0681579,31.9817105 62.9106579,32.4026316 62.9631579,32.8253947 C63.0156579,33.2472368 63.2698684,33.6175 63.6456579,33.8173684 C66.3415789,35.2514474 67.6743421,38.3093421 66.8859211,41.2511842 L66.8859211,41.2511842 L66.8859211,41.2511842 Z" id="Shape"></path>
                        </g>
                    </g>
                </g>
            </g>
        </g>
    </g>
</svg>