<?xml version="1.0" encoding="UTF-8" standalone="no"?>
<svg width="80px" height="80px" viewBox="0 0 80 80" version="1.1" xmlns="http://www.w3.org/2000/svg" xmlns:xlink="http://www.w3.org/1999/xlink">
    <!-- Generator: Sketch 3.6.1 (26313) - http://www.bohemiancoding.com/sketch -->
    <title>noun_369346_cc</title>
    <desc>Created with Sketch.</desc>
    <defs></defs>
    <g id="Page-1" stroke="none" stroke-width="1" fill="none" fill-rule="evenodd">
        <g id="noun_369346_cc" transform="translate(5.000000, 5.000000)" fill="#000000">
            <path d="M35,70 C52.066,70 69.7168889,57.0134444 69.7168889,35.2823333 C69.7168889,25.7957778 65.7253333,17.8686667 58.478,12.9616667 C51.9174444,8.51977778 43.5143333,7.31733333 36.1596667,9.67244444 C36.0048889,8.26077778 35.9667778,4.51577778 39.4621111,2.36133333 C40.0617778,1.99188889 40.2484444,1.20555556 39.879,0.605888889 C39.5087778,0.00622222222 38.7224444,-0.178888889 38.1235556,0.189777778 C34.0931111,2.67244444 33.3651111,6.91755556 33.5813333,9.59777778 C26.2888889,7.35233333 18.0047778,8.57344444 11.5227778,12.9624444 C4.27544444,17.8694444 0.283888889,25.7965556 0.283888889,35.2831111 C0.283111111,57.0134444 17.934,70 35,70 L35,70 Z M34.5737778,12.3705556 C34.6048889,12.383 34.636,12.3884444 34.6678889,12.397 C34.7036667,12.4086667 34.7386667,12.4211111 34.776,12.4281111 C34.8141111,12.4358889 34.8522222,12.4374444 34.8903333,12.4421111 C34.9268889,12.4452222 34.9626667,12.4498889 35,12.4498889 C35.0365556,12.4498889 35.0731111,12.446 35.1096667,12.4421111 C35.1485556,12.4374444 35.1866667,12.4366667 35.224,12.4281111 C35.2597778,12.4211111 35.2947778,12.4086667 35.3297778,12.3977778 C35.3624444,12.3884444 35.3943333,12.3822222 35.4262222,12.3697778 C40.6614444,10.2744444 46.6378889,10.2783333 51.9991111,12.2212222 C50.1075556,13.4236667 46.2443333,13.1211111 44.7354444,12.8636667 C44.4375556,12.8107778 44.1264444,12.9258889 43.9343333,13.1623333 C43.7406667,13.3987778 43.6885556,13.7223333 43.799,14.007 C43.848,14.1361111 44.8808889,16.7681111 47.3837778,19.8823333 C43.4155556,19.2515556 40.3402222,16.9928889 40.3044444,16.9656667 C40.0757778,16.7961111 39.7778889,16.7517778 39.5103333,16.8466667 C39.2427778,16.9415556 39.0397778,17.1647778 38.9705556,17.4408889 C38.9581111,17.4914444 37.7673333,22.1581111 35.0303333,24.5793333 C32.3057778,21.9481111 31.038,17.4673333 31.0247778,17.4198889 C30.9407778,17.1134444 30.6895556,16.8824444 30.3792222,16.8163333 C30.0642222,16.7541111 29.7461111,16.8676667 29.5446667,17.1118889 C29.4443333,17.2347778 27.2914444,19.8022222 22.6131111,20.069 C25.3602222,16.9641111 26.1908889,14.0692222 26.229,13.9284444 C26.3091111,13.6453333 26.2344444,13.3396667 26.033,13.1234444 C25.8323333,12.908 25.5352222,12.8068889 25.2443333,12.8675556 C25.2046667,12.873 21.6463333,13.5473333 18.3664444,12.0991111 C23.632,10.2868889 29.4536667,10.3218889 34.5737778,12.3705556 L34.5737778,12.3705556 Z M12.81,14.8625556 C13.9198889,14.1112222 15.0896667,13.468 16.2983333,12.9204444 C19.0967778,14.6906667 22.2973333,14.8205556 24.1111111,14.707 C23.5153333,16.0198889 22.2903333,18.1914444 20.0371111,20.2696667 C19.789,20.4998889 19.6995556,20.8545556 19.8115556,21.175 C19.922,21.4946667 20.2121111,21.7178889 20.5496667,21.7435556 C25.3306667,22.1075556 28.3577778,20.3637778 29.8192222,19.1838889 C30.4935556,21.0077778 31.9767778,24.3071111 34.4602222,26.3472222 C34.6165556,26.4755556 34.8078889,26.5408889 35,26.5408889 C35.175,26.5408889 35.3484444,26.488 35.4977778,26.3791111 C38.1733333,24.4486667 39.6635556,20.8288889 40.2803333,18.9855556 C41.9128889,19.9811111 45.3693333,21.7443333 49.3764444,21.7443333 C49.7147778,21.7785556 50.0305556,21.5444444 50.1674444,21.2317778 C50.3012222,20.9222222 50.239,20.5605556 50.008,20.3132222 C47.9912222,18.1572222 46.7102222,16.0447778 46.0203333,14.7334444 C48.1864444,14.9177778 51.9376667,14.8983333 53.7623333,12.9476667 C54.9476667,13.489 56.0995556,14.1213333 57.19,14.861 C63.7878889,19.3277778 67.4224444,26.5797778 67.4224444,35.2807778 C67.4224444,55.5753333 50.9374444,67.7032222 34.9992222,67.7032222 C19.061,67.7032222 2.57677778,55.5768889 2.57677778,35.2823333 C2.57677778,26.5813333 6.21133333,19.3293333 12.81,14.8625556 L12.81,14.8625556 Z" id="Shape"></path>
        </g>
    </g>
</svg>