<?xml version="1.0" encoding="UTF-8" standalone="no"?>
<svg width="80px" height="80px" viewBox="0 0 80 80" version="1.1" xmlns="http://www.w3.org/2000/svg" xmlns:xlink="http://www.w3.org/1999/xlink">
    <!-- Generator: Sketch 3.6.1 (26313) - http://www.bohemiancoding.com/sketch -->
    <title>noun_184272_cc</title>
    <desc>Created with Sketch.</desc>
    <defs></defs>
    <g id="Page-1" stroke="none" stroke-width="1" fill="none" fill-rule="evenodd">
        <g id="noun_184272_cc" transform="translate(10.000000, 5.000000)" fill="#000000">
            <g id="Group">
                <path d="M37.3955556,13.0767778 C39.1968889,11.8058889 40.4545556,10.2581111 41.0612222,9.00277778 C42.0202222,7.01633333 41.4781111,5.85666667 41.0697778,5.34177778 C40.4133333,4.51577778 39.4885556,4.07866667 38.3926667,4.07866667 C36.8122222,4.07866667 35.0388889,5.05477778 33.6062222,6.08611111 C33.4708889,4.23266667 33.0656667,2.13811111 32.0024444,0.994 C31.3973333,0.343777778 30.6281111,0 29.7772222,0 C28.9255556,0 28.1563333,0.343777778 27.5535556,0.995555556 C26.4934444,2.13888889 26.0905556,4.23111111 25.9567778,6.08377778 C24.5248889,5.05322222 22.7538889,4.07944444 21.175,4.07944444 C20.0791111,4.07944444 19.1527778,4.51655556 18.4986667,5.34255556 C18.0903333,5.85744444 17.5474444,7.01711111 18.5072222,9.00355556 C19.1177778,10.2674444 20.3855556,11.8261111 22.204,13.1008889 C9.46633333,15.8371111 0.0521111111,25.2342222 0.0521111111,36.379 C0.0521111111,46.172 7.27844444,54.9111111 18.4621111,58.646 C25.0568889,61.0742222 28.3951111,68.3433333 28.427,68.4141111 C28.6774444,68.9756667 29.2351111,69.3373333 29.8503333,69.3381111 L29.8534444,69.3381111 C30.4671111,69.3381111 31.0247778,68.9764444 31.2775556,68.4164444 C31.3102222,68.3425556 34.6461111,61.075 41.2416667,58.646 L41.2416667,58.646 C52.4261111,54.9118889 59.6532222,46.172 59.6532222,36.379 C59.6508889,25.2038889 50.1853333,15.7842222 37.3955556,13.0767778 L37.3955556,13.0767778 Z M22.5703333,9.36133333 C21.6766667,8.43888889 21.2652222,7.63 21.1384444,7.203 C21.1493333,7.203 21.1617778,7.20222222 21.175,7.20222222 C22.4505556,7.20222222 25.0576667,9.20422222 26.4187778,10.5567778 C26.8807778,11.0156667 27.5784444,11.1401111 28.1718889,10.8678889 C28.7645556,10.5956667 29.1262222,9.98355556 29.0772222,9.33411111 C28.8827778,6.713 29.2203333,3.84688889 29.778,3.18033333 C30.3387778,3.84455556 30.681,6.713 30.4896667,9.33644444 C30.4422222,9.98588889 30.8038889,10.5972222 31.3957778,10.8686667 C31.9884444,11.1408889 32.6861111,11.0156667 33.1488889,10.5567778 C34.51,9.20344444 37.1171111,7.20222222 38.3918889,7.20222222 C38.4051111,7.20222222 38.4175556,7.20222222 38.4292222,7.203 C38.3024444,7.63077778 37.8917778,8.43888889 36.9973333,9.36133333 C36.2016667,10.1818889 34.1008889,11.9832222 30.8287778,12.313 C30.5028889,12.3052222 30.1785556,12.2927778 29.8503333,12.2927778 C29.4847778,12.2927778 29.1215556,12.3052222 28.7598889,12.3153333 C25.4753333,11.991 23.3675556,10.1834444 22.5703333,9.36133333 L22.5703333,9.36133333 Z M40.2515556,55.6842222 C40.2468889,55.6857778 40.243,55.6881111 40.2383333,55.6896667 C40.2297778,55.6927778 40.2204444,55.6927778 40.2111111,55.6966667 C35.0077778,57.5928889 31.6065556,61.8185556 29.8511111,64.5742222 C28.0948889,61.8193333 24.6944444,57.5928889 19.4903333,55.6966667 C19.481,55.6927778 19.4716667,55.6927778 19.4623333,55.6896667 C19.4584444,55.6881111 19.4545556,55.6857778 19.4498889,55.6842222 C9.562,52.3825556 3.17333333,44.8038889 3.17333333,36.3782222 C3.17333333,25.1455556 14.4752222,15.9506667 28.6128889,15.4396667 C28.9955556,15.4731111 29.3844444,15.4933333 29.7842222,15.4933333 C30.1894444,15.4933333 30.5861111,15.4723333 30.9742222,15.4381111 C45.1647778,15.9024444 56.5281111,25.1152222 56.5281111,36.3782222 C56.5281111,44.8038889 50.1386667,52.3825556 40.2515556,55.6842222 L40.2515556,55.6842222 Z" id="Shape"></path>
                <path d="M23.5246667,20.5535556 C24.3421111,20.2852222 24.7885556,19.4063333 24.5225556,18.5873333 C24.2565556,17.7675556 23.3753333,17.3164444 22.5555556,17.5855556 C22.2537778,17.6835556 15.1161111,20.076 11.669,27.4858889 C8.98411111,33.257 9.31311111,40.3425556 12.6451111,48.5442222 C12.8908889,49.1501111 13.475,49.518 14.0917778,49.518 C14.287,49.518 14.4868889,49.4814444 14.679,49.4028889 C15.477,49.0793333 15.862,48.1685556 15.5376667,47.3697778 C12.5533333,40.0244444 12.1986667,33.7905556 14.4814444,28.8431111 C17.3312222,22.6691111 23.4577778,20.5761111 23.5246667,20.5535556 L23.5246667,20.5535556 Z" id="Shape"></path>
                <path d="M41.8242222,20.3668889 C41.1584444,20.9152222 41.0627778,21.8983333 41.6111111,22.5641111 C41.664,22.6294444 46.9505556,29.1596667 45.976,37.093 C45.3576667,42.1283333 42.3367778,46.6868889 36.9973333,50.6434444 C36.3043333,51.1567778 36.1596667,52.1336667 36.6722222,52.8266667 C36.9786667,53.2396667 37.45,53.459 37.9275556,53.459 C38.2503333,53.459 38.577,53.3586667 38.8554444,53.1517778 C44.9096667,48.6655556 48.3466667,43.3906667 49.0746667,37.4733333 C50.2117778,28.2247778 44.2742222,20.8887778 44.0214444,20.5807778 C43.4746667,19.9142222 42.49,19.8193333 41.8242222,20.3668889 L41.8242222,20.3668889 Z" id="Shape"></path>
                <path d="M24.8678889,26.3822222 C25.3633333,25.6791111 25.1953333,24.7068889 24.4937778,24.2091111 C23.7891111,23.7105556 22.8153333,23.8785556 22.3175556,24.5816667 C22.2156667,24.7255556 12.3223333,39.0895556 24.6928889,54.8963333 C25.0008889,55.2898889 25.4597778,55.496 25.9233333,55.496 C26.2601111,55.496 26.5992222,55.3863333 26.8846667,55.1631111 C27.5636667,54.6311111 27.6826667,53.6511111 27.1522222,52.9713333 C16.247,39.0382222 24.5093333,26.8947778 24.8678889,26.3822222 L24.8678889,26.3822222 Z" id="Shape"></path>
            </g>
        </g>
    </g>
</svg>