<?xml version="1.0" encoding="UTF-8" standalone="no"?>
<svg width="80px" height="80px" viewBox="0 0 80 80" version="1.1" xmlns="http://www.w3.org/2000/svg" xmlns:xlink="http://www.w3.org/1999/xlink">
    <!-- Generator: Sketch 3.6.1 (26313) - http://www.bohemiancoding.com/sketch -->
    <title>water</title>
    <desc>Created with Sketch.</desc>
    <defs></defs>
    <g id="Page-1" stroke="none" stroke-width="1" fill="none" fill-rule="evenodd">
        <g id="water" transform="translate(15.000000, 2.000000)" fill="#000000">
            <g id="Page-1">
                <g id="noun_390049_cc">
                    <path d="M24.7826087,7.6 L43.3695652,41.6347826 C44.9391304,44.6086957 45.8478261,47.9130435 45.8478261,51.4652174 C45.8478261,63.1130435 36.4304348,72.5304348 24.7826087,72.5304348 C13.1347826,72.5304348 3.7173913,63.1130435 3.7173913,51.4652174 C3.7173913,47.9130435 4.62608696,44.6086957 6.19565217,41.6347826 L24.7826087,7.6 L24.7826087,7.6 L24.7826087,7.6 Z M24.7826087,0.743478261 L21.8913043,6.03043478 L3.22173913,40.0652174 L3.22173913,40.0652174 L3.22173913,40.0652174 C1.40434783,43.5347826 0.413043478,47.5 0.413043478,51.4652174 C0.413043478,64.9304348 11.3173913,75.8347826 24.7826087,75.8347826 C38.2478261,75.8347826 49.1521739,64.9304348 49.1521739,51.4652174 C49.1521739,47.5 48.1608696,43.6173913 46.3434783,40.0652174 L46.3434783,40.0652174 L46.3434783,40.0652174 L27.673913,6.03043478 L24.7826087,0.743478261 L24.7826087,0.743478261 L24.7826087,0.743478261 L24.7826087,0.743478261 Z" id="Shape"></path>
                    <path d="M24.1217391,66.5 C16.273913,66.5 9.83043478,60.0565217 9.83043478,52.2086957 C9.83043478,51.3 10.573913,50.5565217 11.4826087,50.5565217 C12.3913043,50.5565217 13.1347826,51.3 13.1347826,52.2086957 C13.1347826,58.2391304 18.0913043,63.1956522 24.1217391,63.1956522 C25.0304348,63.1956522 25.773913,63.9391304 25.773913,64.8478261 C25.773913,65.7565217 25.0304348,66.5 24.1217391,66.5 L24.1217391,66.5 L24.1217391,66.5 Z" id="Shape"></path>
                </g>
            </g>
        </g>
    </g>
</svg>