<?xml version="1.0" encoding="UTF-8" standalone="no"?>
<svg width="80px" height="80px" viewBox="0 0 80 80" version="1.1" xmlns="http://www.w3.org/2000/svg" xmlns:xlink="http://www.w3.org/1999/xlink">
    <!-- Generator: Sketch 3.6.1 (26313) - http://www.bohemiancoding.com/sketch -->
    <title>wortel</title>
    <desc>Created with Sketch.</desc>
    <defs></defs>
    <g id="Page-1" stroke="none" stroke-width="1" fill="none" fill-rule="evenodd">
        <g id="wortel" transform="translate(5.000000, 7.000000)" fill="#000000">
            <g id="Page-1">
                <g id="noun_105128_cc">
                    <g id="Group">
                        <path d="M67.2739583,66.2739583 L67.2739583,66.2739583 C65.81125,66.2739583 64.520625,65.5652083 64.3791667,65.4835417 C63.8964583,65.1627083 25.3789583,39.1941667 18.1295833,33.8333333 C16.1520833,32.370625 15.0977083,30.5097917 14.9985417,28.3033333 C14.7520833,22.8797917 20.67,17.3177083 21.3889583,16.6614583 C22.030625,15.9570833 27.38125,10.26375 32.6895833,10.26375 C35.01125,10.26375 37.04125,11.3502083 38.5608333,13.4035417 C43.923125,20.6514583 69.88875,59.171875 70.15125,59.5597917 C70.92125,60.9072917 71.6664583,63.4885417 69.9397917,65.2166667 C69.2470833,65.909375 68.3254167,66.2739583 67.2739583,66.2739583 L67.2739583,66.2739583 L67.2739583,66.2739583 Z M32.688125,13.1804167 C29.16625,13.1804167 24.8685417,17.1383333 23.509375,18.66375 C23.4729167,18.7045833 23.4335417,18.7454167 23.39125,18.781875 C21.811875,20.195 17.7460417,24.635625 17.9108333,28.1735417 C17.9720833,29.4772917 18.609375,30.5608333 19.8635417,31.486875 C27.0633333,36.8097917 65.526875,62.7447917 65.9133333,63.0058333 C66.0197917,63.0583333 66.6877083,63.3558333 67.2739583,63.3558333 L67.2739583,63.3558333 C67.6297917,63.3558333 67.784375,63.2479167 67.8791667,63.1516667 C68.3720833,62.6572917 67.8310417,61.376875 67.6691667,61.0866667 C67.469375,60.8008333 41.53875,22.3329167 36.2158333,15.1360417 C35.2416667,13.820625 34.0866667,13.1804167 32.688125,13.1804167 L32.688125,13.1804167 L32.688125,13.1804167 Z" id="Shape"></path>
                        <path d="M21.53625,18.265625 C21.1133333,18.265625 20.69625,18.0833333 20.4089583,17.7333333 C13.1770833,8.92645833 2.0675,4.77895833 1.95666667,4.738125 C1.19979167,4.46104167 0.811875,3.6225 1.08895833,2.86708333 C1.3675,2.11020833 2.20895833,1.72375 2.96,1.999375 C3.345,2.14083333 10.6497917,4.869375 17.5127083,10.688125 C16.868125,7.80354167 16.8097917,4.44791667 18.5670833,1.518125 C18.98125,0.825416667 19.8752083,0.602291667 20.5679167,1.01791667 C21.2591667,1.43208333 21.4822917,2.3275 21.068125,3.01875 C17.944375,8.22208333 22.721875,15.955625 22.77,16.0329167 C23.1783333,16.6847917 23.010625,17.5422917 22.3864583,17.9914583 C22.1297917,18.1752083 21.8322917,18.265625 21.53625,18.265625 L21.53625,18.265625 L21.53625,18.265625 Z" id="Shape"></path>
                        <path d="M20.6029167,19.1960417 C20.3229167,19.1960417 20.04,19.1158333 19.7891667,18.9466667 C11.1179167,13.103125 5.19854167,17.5816667 5.14020833,17.6283333 C4.504375,18.1241667 3.59,18.011875 3.09270833,17.3775 C2.596875,16.7416667 2.70916667,15.8258333 3.34354167,15.33 C3.65125,15.089375 11.01,9.51416667 21.4195833,16.52875 C22.0875,16.979375 22.2639583,17.885 21.8133333,18.5529167 C21.531875,18.97 21.0710417,19.1960417 20.6029167,19.1960417 L20.6029167,19.1960417 L20.6029167,19.1960417 Z" id="Shape"></path>
                        <path d="M30.61,30.0708333 C30.360625,30.0708333 30.106875,30.0066667 29.875,29.8710417 C29.1808333,29.4641667 28.9460417,28.573125 29.3514583,27.8789583 C29.5045833,27.6164583 33.1722917,21.4272917 39.443125,19.1595833 C40.2014583,18.886875 41.035625,19.2777083 41.3097917,20.0345833 C41.5839583,20.7929167 41.1916667,21.6285417 40.4333333,21.9027083 C35.1745833,23.804375 31.900625,29.2964583 31.8685417,29.351875 C31.59875,29.81125 31.1102083,30.0708333 30.61,30.0708333 L30.61,30.0708333 L30.61,30.0708333 Z" id="Shape"></path>
                        <path d="M38.1758333,36.273125 C37.925,36.273125 37.67125,36.2089583 37.4408333,36.0733333 C36.7452083,35.6664583 36.511875,34.7754167 36.91875,34.08125 C37.0485417,33.8566667 40.1825,28.56875 45.550625,26.6291667 C46.3075,26.3564583 47.1445833,26.7472917 47.4172917,27.505625 C47.6914583,28.2625 47.2991667,29.098125 46.5408333,29.3722917 C42.1847917,30.9472917 39.4620833,35.5075 39.4358333,35.5541667 C39.1645833,36.015 38.6760417,36.273125 38.1758333,36.273125 L38.1758333,36.273125 L38.1758333,36.273125 Z" id="Shape"></path>
                        <path d="M46.5291667,43.26 C46.3089583,43.26 46.084375,43.2104167 45.874375,43.1054167 C45.1583333,42.7422917 44.868125,41.8702083 45.226875,41.1527083 C45.3245833,40.9558333 47.6841667,36.3416667 52.5039583,35.1064583 C53.2827083,34.9066667 54.0775,35.3777083 54.27875,36.1579167 C54.4785417,36.938125 54.0075,37.7329167 53.2272917,37.9327083 C49.7170833,38.8310417 47.8504167,42.4258333 47.8329167,42.4608333 C47.5747917,42.9683333 47.0614583,43.26 46.5291667,43.26 L46.5291667,43.26 L46.5291667,43.26 Z" id="Shape"></path>
                    </g>
                </g>
            </g>
        </g>
    </g>
</svg>