<?xml version="1.0" encoding="UTF-8" standalone="no"?>
<svg width="80px" height="80px" viewBox="0 0 80 80" version="1.1" xmlns="http://www.w3.org/2000/svg" xmlns:xlink="http://www.w3.org/1999/xlink">
    <!-- Generator: Sketch 3.6.1 (26313) - http://www.bohemiancoding.com/sketch -->
    <title>noun_105128_cc</title>
    <desc>Created with Sketch.</desc>
    <defs></defs>
    <g id="Page-1" stroke="none" stroke-width="1" fill="none" fill-rule="evenodd">
        <g id="noun_105128_cc" transform="translate(5.000000, 6.000000)" fill="#000000">
            <g id="Group">
                <path d="M66.2739583,66.2739583 L66.2739583,66.2739583 C64.81125,66.2739583 63.520625,65.5652083 63.3791667,65.4835417 C62.8964583,65.1627083 24.3789583,39.1941667 17.1295833,33.8333333 C15.1520833,32.370625 14.0977083,30.5097917 13.9985417,28.3033333 C13.7520833,22.8797917 19.67,17.3177083 20.3889583,16.6614583 C21.030625,15.9570833 26.38125,10.26375 31.6895833,10.26375 C34.01125,10.26375 36.04125,11.3502083 37.5608333,13.4035417 C42.923125,20.6514583 68.88875,59.171875 69.15125,59.5597917 C69.92125,60.9072917 70.6664583,63.4885417 68.9397917,65.2166667 C68.2470833,65.909375 67.3254167,66.2739583 66.2739583,66.2739583 L66.2739583,66.2739583 Z M31.688125,13.1804167 C28.16625,13.1804167 23.8685417,17.1383333 22.509375,18.66375 C22.4729167,18.7045833 22.4335417,18.7454167 22.39125,18.781875 C20.811875,20.195 16.7460417,24.635625 16.9108333,28.1735417 C16.9720833,29.4772917 17.609375,30.5608333 18.8635417,31.486875 C26.0633333,36.8097917 64.526875,62.7447917 64.9133333,63.0058333 C65.0197917,63.0583333 65.6877083,63.3558333 66.2739583,63.3558333 L66.2739583,63.3558333 C66.6297917,63.3558333 66.784375,63.2479167 66.8791667,63.1516667 C67.3720833,62.6572917 66.8310417,61.376875 66.6691667,61.0866667 C66.469375,60.8008333 40.53875,22.3329167 35.2158333,15.1360417 C34.2416667,13.820625 33.0866667,13.1804167 31.688125,13.1804167 L31.688125,13.1804167 Z" id="Shape"></path>
                <path d="M20.53625,18.265625 C20.1133333,18.265625 19.69625,18.0833333 19.4089583,17.7333333 C12.1770833,8.92645833 1.0675,4.77895833 0.956666667,4.738125 C0.199791667,4.46104167 -0.188125,3.6225 0.0889583333,2.86708333 C0.3675,2.11020833 1.20895833,1.72375 1.96,1.999375 C2.345,2.14083333 9.64979167,4.869375 16.5127083,10.688125 C15.868125,7.80354167 15.8097917,4.44791667 17.5670833,1.518125 C17.98125,0.825416667 18.8752083,0.602291667 19.5679167,1.01791667 C20.2591667,1.43208333 20.4822917,2.3275 20.068125,3.01875 C16.944375,8.22208333 21.721875,15.955625 21.77,16.0329167 C22.1783333,16.6847917 22.010625,17.5422917 21.3864583,17.9914583 C21.1297917,18.1752083 20.8322917,18.265625 20.53625,18.265625 L20.53625,18.265625 Z" id="Shape"></path>
                <path d="M19.6029167,19.1960417 C19.3229167,19.1960417 19.04,19.1158333 18.7891667,18.9466667 C10.1179167,13.103125 4.19854167,17.5816667 4.14020833,17.6283333 C3.504375,18.1241667 2.59,18.011875 2.09270833,17.3775 C1.596875,16.7416667 1.70916667,15.8258333 2.34354167,15.33 C2.65125,15.089375 10.01,9.51416667 20.4195833,16.52875 C21.0875,16.979375 21.2639583,17.885 20.8133333,18.5529167 C20.531875,18.97 20.0710417,19.1960417 19.6029167,19.1960417 L19.6029167,19.1960417 Z" id="Shape"></path>
                <path d="M29.61,30.0708333 C29.360625,30.0708333 29.106875,30.0066667 28.875,29.8710417 C28.1808333,29.4641667 27.9460417,28.573125 28.3514583,27.8789583 C28.5045833,27.6164583 32.1722917,21.4272917 38.443125,19.1595833 C39.2014583,18.886875 40.035625,19.2777083 40.3097917,20.0345833 C40.5839583,20.7929167 40.1916667,21.6285417 39.4333333,21.9027083 C34.1745833,23.804375 30.900625,29.2964583 30.8685417,29.351875 C30.59875,29.81125 30.1102083,30.0708333 29.61,30.0708333 L29.61,30.0708333 Z" id="Shape"></path>
                <path d="M37.1758333,36.273125 C36.925,36.273125 36.67125,36.2089583 36.4408333,36.0733333 C35.7452083,35.6664583 35.511875,34.7754167 35.91875,34.08125 C36.0485417,33.8566667 39.1825,28.56875 44.550625,26.6291667 C45.3075,26.3564583 46.1445833,26.7472917 46.4172917,27.505625 C46.6914583,28.2625 46.2991667,29.098125 45.5408333,29.3722917 C41.1847917,30.9472917 38.4620833,35.5075 38.4358333,35.5541667 C38.1645833,36.015 37.6760417,36.273125 37.1758333,36.273125 L37.1758333,36.273125 Z" id="Shape"></path>
                <path d="M45.5291667,43.26 C45.3089583,43.26 45.084375,43.2104167 44.874375,43.1054167 C44.1583333,42.7422917 43.868125,41.8702083 44.226875,41.1527083 C44.3245833,40.9558333 46.6841667,36.3416667 51.5039583,35.1064583 C52.2827083,34.9066667 53.0775,35.3777083 53.27875,36.1579167 C53.4785417,36.938125 53.0075,37.7329167 52.2272917,37.9327083 C48.7170833,38.8310417 46.8504167,42.4258333 46.8329167,42.4608333 C46.5747917,42.9683333 46.0614583,43.26 45.5291667,43.26 L45.5291667,43.26 Z" id="Shape"></path>
            </g>
        </g>
    </g>
</svg>