<?xml version="1.0" encoding="UTF-8" standalone="no"?>
<svg width="500px" height="500px" viewBox="0 0 500 500" version="1.1" xmlns="http://www.w3.org/2000/svg" xmlns:xlink="http://www.w3.org/1999/xlink">
    <!-- Generator: Sketch 3.6.1 (26313) - http://www.bohemiancoding.com/sketch -->
    <title>Group 2</title>
    <desc>Created with Sketch.</desc>
    <defs></defs>
    <g id="Page-1" stroke="none" stroke-width="1" fill="none" fill-rule="evenodd">
        <g id="Group-2">
            <rect id="Rectangle-1" fill="#DCEDC8" x="0" y="0" width="500" height="500"></rect>
            <g id="plant-awesome" transform="translate(137.000000, 38.000000)">
                <g id="Group">
                    <g transform="translate(36.505051, 0.000000)" id="Shape">
                        <path d="M32.1300606,144.399835 C27.6932929,144.399835 23.2902222,145.1038 18.9901145,146.489262 C23.6262559,165.173348 39.614532,178.177037 58.9996498,178.177037 C63.4223771,178.177037 67.8207677,177.488987 72.1442761,176.121311 C67.3349697,157.412885 51.3476296,144.399835 32.1300606,144.399835 L32.1300606,144.399835 Z"></path>
                        <path d="M205.267899,92.339207 C216.626586,80.8174009 223.306074,65.5071035 224.421818,48.7111784 C200.910694,43.3078744 177.087872,50.096641 160.925495,66.6276432 C149.634202,78.1840859 143.059549,93.3960903 142.073912,109.970154 C147.457939,111.247963 152.891576,111.892015 158.284963,111.892015 C176.154653,111.900441 192.841205,104.951597 205.267899,92.339207 L205.267899,92.339207 Z"></path>
                        <path d="M95.6404242,50.6414648 C80.8942559,30.3332048 57.8202559,18.1973018 31.7874747,16.8839207 C25.6995556,41.6509361 30.335697,66.739978 44.8478586,86.548348 C59.6614209,106.768612 82.6539865,118.77533 108.382559,119.878084 C114.600586,95.4546256 110.07864,70.5153634 95.6404242,50.6414648 L95.6404242,50.6414648 Z"></path>
                        <path d="M86.3101077,216.718172 C93.5156431,154.50435 125.507172,131.109692 135.362599,125.313216 C142.931313,127.37924 150.617966,128.488546 158.289643,128.488546 C180.63167,128.488546 201.513495,119.785407 217.080559,103.989262 C232.94996,87.8860683 241.508054,65.9863987 241.16266,42.3146476 L241.072801,36.3290749 L235.371461,34.5261013 C226.431468,31.7027533 217.31831,30.2714207 208.284714,30.2714207 C185.704936,30.2714207 164.674283,39.0672357 149.061354,55.0431167 C138.264283,66.0893722 131.019434,79.7951542 127.620721,94.8133811 C126.928997,75.4992841 120.653872,56.8610683 109.063987,40.9001652 C90.2723098,15.0200991 60.3812256,0.177863436 27.0493064,0.177863436 L19.4365993,0.277092511 L17.6328754,5.98370044 C7.60802694,37.7192181 12.6447879,70.6595264 31.4710976,96.3523678 C47.745798,118.568447 72.1433401,132.531663 99.6915488,135.796861 C94.347771,142.646476 89.0199057,151.037885 84.304202,161.208866 C74.9092997,141.093447 55.216229,127.812665 32.1309966,127.812665 C23.1910034,127.812665 14.4354074,129.832819 6.09540741,133.821641 L0.790942761,136.357599 L1.43024916,142.1962 C4.73816835,172.654846 28.9531852,194.761399 59.0024579,194.761399 C63.9203434,194.761399 68.7989158,194.08739 73.5932458,192.878855 C71.899037,200.215253 70.5689428,208.159196 69.6460202,216.714427" fill="#000000"></path>
                        <path d="M58.9996498,178.177037 C39.614532,178.177037 23.6215758,165.173348 18.9901145,146.489262 C23.2902222,145.098183 27.6932929,144.399835 32.1300606,144.399835 C51.3476296,144.399835 67.3302896,157.411013 72.1442761,176.121311 C67.8207677,177.488051 63.4223771,178.177037 58.9996498,178.177037 L58.9996498,178.177037 Z" fill="#70B24D"></path>
                        <path d="M160.925495,66.6313877 C177.091616,50.1022577 200.910694,43.3106828 224.421818,48.7139868 C223.30233,65.5099119 216.626586,80.8220815 205.267899,92.3420154 C192.837461,104.955341 176.154653,111.899504 158.290579,111.899504 C152.89064,111.899504 147.458875,111.255452 142.080465,109.976707 C143.059549,93.3998348 149.63233,78.1878304 160.925495,66.6313877 L160.925495,66.6313877 Z" fill="#59A535"></path>
                        <path d="M44.8544108,86.5492841 C30.3422492,66.7409141 25.7070438,41.6518722 31.7940269,16.8848568 C57.8268081,18.1963656 80.9026801,30.3378855 95.6469764,50.6424009 C110.079576,70.5153634 114.601522,95.4555617 108.390047,119.880892 C82.6539865,118.776267 59.6689091,106.768612 44.8544108,86.5492841 L44.8544108,86.5492841 Z" fill="#3A8C1B"></path>
                    </g>
                    <path d="M106.863387,214.141024 L7.71286195,214.141024 C3.60651178,214.141024 0.283616162,217.465198 0.283616162,221.571035 L0.283616162,290.53337 C0.283616162,294.634526 3.60651178,297.964317 7.71286195,297.964317 L24.5576027,297.964317 L37.182734,418.236509 C37.5786734,422.021256 40.7677172,424.893282 44.5726667,424.893282 L184.021024,424.893282 C187.823165,424.893282 191.015017,422.021256 191.411892,418.236509 L204.036088,297.964317 L220.885508,297.964317 C224.986242,297.964317 228.31569,294.63359 228.31569,290.53337 L228.31569,221.571035 C228.313818,217.465198 224.985306,214.141024 220.885508,214.141024 L121.723751,214.141024" id="Shape" fill="#000000"></path>
                    <path d="M177.330303,410.026707 L51.2596431,410.026707 L39.4965926,297.957764 L189.092418,297.957764 L177.330303,410.026707 Z" id="Shape" fill="#664A32"></path>
                    <path d="M213.455327,283.096806 L197.344431,283.096806 L31.2492593,283.096806 L15.1477239,283.096806 L15.1477239,229.001046 L213.460943,229.001046 L213.460943,283.096806 L213.455327,283.096806 Z" id="Shape" fill="#684113"></path>
                </g>
                <g id="Group" transform="translate(58.969697, 318.281938)" fill="#000000">
                    <ellipse id="Oval" cx="97.1315152" cy="15.8972467" rx="13.2073401" ry="15.4104626"></ellipse>
                    <path d="M4.68013468,18.0980727 L31.0948148,18.0980727 C33.5266128,18.0980727 35.4969495,16.127533 35.4969495,13.6964207 C35.4969495,11.2643722 33.5266128,9.29289648 31.0948148,9.29289648 L4.68013468,9.29289648 C2.2483367,9.29289648 0.278,11.2643722 0.278,13.6964207 C0.278,16.127533 2.2483367,18.0980727 4.68013468,18.0980727 L4.68013468,18.0980727 Z" id="Shape"></path>
                    <path d="M43.6385118,55.401652 C44.0606599,56.0812775 45.1277306,57.3347467 46.8238114,58.6284692 C49.6955421,60.82087 53.2150034,62.1286344 57.5094949,62.1286344 C61.8039865,62.1286344 65.3225118,60.82087 68.1961145,58.6284692 C69.8912593,57.3347467 70.95833,56.0803414 71.3804781,55.401652 C72.6647071,53.3365639 75.3782492,52.7028084 77.4449966,53.9871696 C79.5098721,55.2705947 80.1435623,57.9853524 78.8593333,60.0513767 C77.9130101,61.5735132 76.1691919,63.620815 73.5361481,65.6297357 C69.1957912,68.9417401 63.836101,70.9356828 57.510431,70.9356828 C51.185697,70.9356828 45.8250707,68.9417401 41.4837778,65.6297357 C38.850734,63.620815 37.1069158,61.5735132 36.1605926,60.0513767 C34.8763636,57.9862885 35.5100539,55.2715308 37.5749293,53.9871696 C39.6416768,52.7028084 42.3542828,53.3365639 43.6385118,55.401652 L43.6385118,55.401652 Z" id="Shape"></path>
                </g>
            </g>
        </g>
    </g>
</svg>