<?xml version="1.0" encoding="UTF-8" standalone="no"?>
<svg width="80px" height="80px" viewBox="0 0 80 80" version="1.1" xmlns="http://www.w3.org/2000/svg" xmlns:xlink="http://www.w3.org/1999/xlink">
    <!-- Generator: Sketch 3.6.1 (26313) - http://www.bohemiancoding.com/sketch -->
    <title>plant</title>
    <desc>Created with Sketch.</desc>
    <defs></defs>
    <g id="Page-1" stroke="none" stroke-width="1" fill="none" fill-rule="evenodd">
        <g id="plant" transform="translate(20.000000, 2.000000)">
            <g id="Page-1">
                <g id="plant">
                    <g id="Group">
                        <g id="Shape" transform="translate(6.442731, 0.000000)">
                            <path d="M5.67059472,25.4823238 C4.88755506,25.4823238 4.11046256,25.6065528 3.35154185,25.8510463 C4.16976872,29.1482379 6.99151982,31.4430066 10.4127753,31.4430066 C11.193337,31.4430066 11.9696036,31.3215859 12.7326542,31.0802313 C11.8838656,27.7787445 9.06227973,25.4823238 5.67059472,25.4823238 L5.67059472,25.4823238 L5.67059472,25.4823238 Z"></path>
                            <path d="M36.227478,16.2951542 C38.2321586,14.2618942 39.4110132,11.5600771 39.6079295,8.59609031 C35.4584802,7.64256607 31.2540198,8.8405837 28.4015418,11.7578194 C26.4087555,13.7971917 25.2484031,16.481663 25.0744494,19.4064978 C26.0246696,19.6319934 26.9836454,19.7456497 27.9355176,19.7456497 C31.0893171,19.7471366 34.0343061,18.5208701 36.227478,16.2951542 L36.227478,16.2951542 L36.227478,16.2951542 Z"></path>
                            <path d="M16.8794604,8.93672908 C14.2769274,5.3529185 10.2046255,3.21128854 5.61013216,2.97951542 C4.53568281,7.3501652 5.35390969,11.7776432 7.91514317,15.2732379 C10.5295705,18.8415198 14.5875,20.9603524 19.128304,21.154956 C20.2257159,16.8449339 19.4276432,12.4438877 16.8794604,8.93672908 L16.8794604,8.93672908 L16.8794604,8.93672908 Z"></path>
                            <path d="M15.2327643,38.2443832 C16.5044604,27.2654735 22.1506058,23.1370044 23.889978,22.1140969 C25.225771,22.4786894 26.5823789,22.6744494 27.9363436,22.6744494 C31.8794604,22.6744494 35.5648679,21.1386013 38.3122798,18.3510463 C41.1130506,15.5093061 42.6234582,11.6446586 42.5625,7.46729075 L42.5466409,6.41101321 L41.5404185,6.09284141 C39.9626101,5.59460353 38.35424,5.34201542 36.7599119,5.34201542 C32.7748348,5.34201542 29.0631608,6.89421806 26.3076542,9.71349119 C24.4020925,11.6628304 23.1234582,14.0814978 22.5236234,16.7317731 C22.4015418,13.3234031 21.2940528,10.0343062 19.2485683,7.21767621 C15.9320485,2.65060573 10.6566079,0.0313876652 4.77389868,0.0313876652 L3.43034141,0.0488986784 L3.1120044,1.05594714 C1.34273128,6.6563326 2.23166299,12.4693281 5.55429515,17.0033591 C8.42659692,20.9238436 12.732489,23.3879405 17.5944384,23.964152 C16.6513216,25.1729075 15.7110132,26.6537445 14.8787445,28.4486234 C13.2206498,24.8988436 9.74504405,22.5551762 5.67075991,22.5551762 C4.09295155,22.5551762 2.54768723,22.911674 1.07577092,23.6155837 L0.139592511,24.0631057 L0.252422908,25.0934472 C0.83623348,30.4685022 5.10991189,34.3696586 10.4132709,34.3696586 C11.2812225,34.3696586 12.1422357,34.2507159 12.9883811,34.0374449 C12.6893723,35.3321036 12.4546256,36.7339758 12.29174,38.2437225" fill="#000000"></path>
                            <path d="M10.4127753,31.4430066 C6.99151982,31.4430066 4.16894274,29.1482379 3.35154185,25.8510463 C4.11046256,25.6055616 4.88755506,25.4823238 5.67059472,25.4823238 C9.06227973,25.4823238 11.8830396,27.7784141 12.7326542,31.0802313 C11.9696036,31.3214207 11.193337,31.4430066 10.4127753,31.4430066 L10.4127753,31.4430066 L10.4127753,31.4430066 Z" fill="#70B24D"></path>
                            <path d="M28.4015418,11.7584802 C31.2546806,8.84157489 35.4584802,7.64306167 39.6079295,8.59658591 C39.4103524,11.5605726 38.2321586,14.2627202 36.227478,16.2956497 C34.0336454,18.5215308 31.0893171,19.7469714 27.9365088,19.7469714 C26.9834802,19.7469714 26.0248348,19.633315 25.0756058,19.4076542 C25.2484031,16.4823238 26.4084251,13.7978524 28.4015418,11.7584802 L28.4015418,11.7584802 L28.4015418,11.7584802 Z" fill="#59A535"></path>
                            <path d="M7.91629956,15.2734031 C5.35506607,11.7778083 4.5370044,7.3503304 5.61128854,2.97968061 C10.2057819,3.21112335 14.2784141,5.35374449 16.8806168,8.93689427 C19.4278083,12.4438877 20.2258811,16.8450991 19.1296256,21.1554515 C14.5875,20.9605176 10.5308921,18.8415198 7.91629956,15.2734031 L7.91629956,15.2734031 L7.91629956,15.2734031 Z" fill="#3A8C1B"></path>
                        </g>
                        <path d="M18.8601872,37.7895925 L1.36123348,37.7895925 C0.636508811,37.7895925 0.0500550661,38.3762115 0.0500550661,39.100771 L0.0500550661,51.2705947 C0.0500550661,51.9943281 0.636508811,52.5819384 1.36123348,52.5819384 L4.33414097,52.5819384 L6.5623348,73.8064427 C6.63221366,74.4743392 7.19504405,74.9811674 7.86657489,74.9811674 L32.4776432,74.9811674 C33.1486784,74.9811674 33.7120044,74.4743392 33.7820485,73.8064427 L36.0100771,52.5819384 L38.9838106,52.5819384 C39.707544,52.5819384 40.2951542,51.994163 40.2951542,51.2705947 L40.2951542,39.100771 C40.2948238,38.3762115 39.7073789,37.7895925 38.9838106,37.7895925 L21.4828744,37.7895925" id="Shape" fill="#000000"></path>
                        <path d="M31.2968061,72.3576542 L9.0467511,72.3576542 L6.97070485,52.580782 L33.3726872,52.580782 L31.2968061,72.3576542 L31.2968061,72.3576542 Z" id="Shape" fill="#664A32"></path>
                        <path d="M37.672467,49.95826 L34.8290749,49.95826 L5.51514317,49.95826 L2.67340308,49.95826 L2.67340308,40.4119494 L37.6734582,40.4119494 L37.6734582,49.95826 L37.672467,49.95826 L37.672467,49.95826 Z" id="Shape" fill="#684113"></path>
                    </g>
                    <g id="Group" transform="translate(10.407489, 56.167400)" fill="#000000">
                        <ellipse id="Oval" cx="17.1426211" cy="2.80539647" rx="2.33094714" ry="2.71949339"></ellipse>
                        <path d="M0.825991189,3.19377753 L5.48788546,3.19377753 C5.91707049,3.19377753 6.26481277,2.84603524 6.26481277,2.41701542 C6.26481277,1.9878304 5.91707049,1.6399229 5.48788546,1.6399229 L0.825991189,1.6399229 C0.396806167,1.6399229 0.0490638766,1.9878304 0.0490638766,2.41701542 C0.0490638766,2.84603524 0.396806167,3.19377753 0.825991189,3.19377753 L0.825991189,3.19377753 L0.825991189,3.19377753 Z" id="Shape"></path>
                        <path d="M7.70170705,9.77676211 C7.77621146,9.89669604 7.96453744,10.1178965 8.26387665,10.3462004 C8.77070485,10.7330948 9.39185022,10.9638766 10.1497797,10.9638766 C10.9077092,10.9638766 11.5286894,10.7330948 12.035848,10.3462004 C12.335022,10.1178965 12.523348,9.89653083 12.5978524,9.77676211 C12.8245044,9.4123348 13.3034141,9.3004956 13.6681719,9.52714758 C14.0325991,9.75363436 14.1444384,10.2327092 13.9177863,10.5973018 C13.750771,10.8659141 13.4430066,11.2272027 12.978304,11.581718 C12.2122798,12.1661894 11.2663546,12.5180616 10.1499449,12.5180616 C9.03370044,12.5180616 8.08761013,12.1661894 7.3214207,11.581718 C6.85671806,11.2272027 6.54895375,10.8659141 6.38193832,10.5973018 C6.15528634,10.2328745 6.26712555,9.75379956 6.63155286,9.52714758 C6.99631057,9.3004956 7.47505506,9.4123348 7.70170705,9.77676211 L7.70170705,9.77676211 L7.70170705,9.77676211 Z" id="Shape"></path>
                    </g>
                </g>
            </g>
        </g>
    </g>
</svg>