<?xml version="1.0" encoding="UTF-8" standalone="no"?>
<svg width="80px" height="80px" viewBox="0 0 80 80" version="1.1" xmlns="http://www.w3.org/2000/svg" xmlns:xlink="http://www.w3.org/1999/xlink">
    <!-- Generator: Sketch 3.6.1 (26313) - http://www.bohemiancoding.com/sketch -->
    <title>thermometer</title>
    <desc>Created with Sketch.</desc>
    <defs></defs>
    <g id="Page-1" stroke="none" stroke-width="1" fill="none" fill-rule="evenodd">
        <g id="thermometer" transform="translate(27.000000, 2.000000)" fill="#000000">
            <g id="Page-1">
                <g id="noun_342400_cc">
                    <g id="Group">
                        <path d="M21.3,53 L21.3,9.2 C21.3,4.6 17.6,0.9 13,0.9 C8.4,0.9 4.7,4.6 4.7,9.2 L4.7,53 C1.9,55.4 0.4,58.8 0.4,62.5 C0.4,69.5 6.1,75.1 13,75.1 C19.9,75.1 25.6,69.4 25.6,62.5 C25.6,58.8 24.1,55.4 21.3,53 L21.3,53 L21.3,53 Z M13,71.7 C7.9,71.7 3.8,67.6 3.8,62.5 C3.8,59.6 5.1,57 7.4,55.2 L8.1,54.7 L8.1,9.2 C8.1,6.5 10.3,4.3 13,4.3 C15.7,4.3 17.9,6.5 17.9,9.2 L17.9,18 L13,18 L13,21.4 L17.9,21.4 L17.9,25.5 L13,25.5 L13,28.9 L17.9,28.9 L17.9,32.9 L13,32.9 L13,36.3 L17.9,36.3 L17.9,54.5 L18.6,55 C20.9,56.8 22.2,59.4 22.2,62.3 C22.2,67.6 18,71.7 13,71.7 L13,71.7 L13,71.7 Z" id="Shape"></path>
                        <path d="M14.8,56.5 L14.8,41.6 L10.8,41.6 L10.8,56.6 C8.4,57.5 6.6,59.8 6.6,62.5 C6.6,66 9.4,68.8 12.9,68.8 C16.4,68.8 19.2,66 19.2,62.5 C19.3,59.7 17.4,57.3 14.8,56.5 L14.8,56.5 L14.8,56.5 Z" id="Shape"></path>
                    </g>
                </g>
            </g>
        </g>
    </g>
</svg>