<?xml version="1.0" encoding="utf-8"?>
<!-- Generator: Adobe Illustrator 16.0.0, SVG Export Plug-In . SVG Version: 6.00 Build 0)  -->
<!DOCTYPE svg PUBLIC "-//W3C//DTD SVG 1.1//EN" "http://www.w3.org/Graphics/SVG/1.1/DTD/svg11.dtd">
<svg version="1.1" id="Layer_1" xmlns="http://www.w3.org/2000/svg" xmlns:xlink="http://www.w3.org/1999/xlink" x="0px" y="0px"
	 width="296.352px" height="453.694px" viewBox="13.303 -2.808 296.352 453.694"
	 enable-background="new 13.303 -2.808 296.352 453.694" xml:space="preserve">
<g>
	<g>
		<path fill="none" d="M86.326,151.253c-4.74,0-9.444,0.752-14.038,2.232c4.953,19.959,22.034,33.85,42.744,33.85
			c4.725,0,9.424-0.735,14.043-2.196C123.937,165.154,106.857,151.253,86.326,151.253z"/>
		<path fill="none" d="M271.297,95.64c12.135-12.308,19.271-28.663,20.463-46.605c-25.118-5.772-50.569,1.48-67.836,19.139
			c-12.063,12.345-19.087,28.595-20.14,46.3c5.752,1.365,11.557,2.053,17.319,2.053C240.194,116.536,258.021,109.113,271.297,95.64z
			"/>
		<path fill="none" d="M154.177,51.097c-15.754-21.694-40.405-34.658-68.217-36.061c-6.504,26.457-1.551,53.258,13.953,74.418
			c15.826,21.6,40.39,34.426,67.877,35.604C174.433,98.968,169.602,72.327,154.177,51.097z"/>
		<path d="M144.209,228.506c7.698-66.459,41.876-91.45,52.405-97.642c8.086,2.207,16.298,3.392,24.494,3.392
			c23.869,0,46.178-9.297,62.809-26.171c16.954-17.202,26.097-40.596,25.728-65.883l-0.096-6.394l-6.091-1.926
			c-9.551-3.016-19.287-4.545-28.938-4.545c-24.123,0-46.591,9.396-63.271,26.462c-11.535,11.8-19.275,26.441-22.906,42.484
			c-0.739-20.632-7.443-40.542-19.825-57.592c-20.076-27.646-52.01-43.501-87.62-43.501l-8.133,0.106l-1.927,6.096
			c-10.71,33.901-5.329,69.089,14.784,96.535c17.387,23.732,43.452,38.648,72.883,42.136c-5.709,7.317-11.401,16.281-16.439,27.146
			c-10.037-21.488-31.076-35.675-55.739-35.675c-9.551,0-18.905,2.158-27.815,6.419l-5.667,2.709l0.683,6.237
			c3.534,32.537,29.404,56.152,61.507,56.152c5.254,0,10.466-0.72,15.588-2.011c-1.81,7.837-3.231,16.323-4.217,25.462"/>
		<path fill="#70B24D" d="M115.032,187.335c-20.71,0-37.796-13.891-42.744-33.85c4.594-1.486,9.298-2.232,14.038-2.232
			c20.531,0,37.606,13.899,42.749,33.886C124.456,186.599,119.757,187.335,115.032,187.335z"/>
		<path fill="#59A535" d="M223.924,68.178c17.271-17.657,42.718-24.912,67.836-19.14c-1.196,17.942-8.328,34.299-20.463,46.605
			c-13.28,13.474-31.103,20.892-50.188,20.892c-5.769,0-11.572-0.688-17.318-2.054C204.837,96.773,211.859,80.523,223.924,68.178z"
			/>
		<path fill="#3A8C1B" d="M99.92,89.455c-15.504-21.16-20.456-47.961-13.953-74.418c27.812,1.401,52.465,14.371,68.217,36.061
			c15.419,21.229,20.25,47.871,13.614,73.963C140.303,123.881,115.747,111.054,99.92,89.455z"/>
	</g>
	<path d="M127.167,225.753H21.24c-4.387,0-7.937,3.551-7.937,7.937v73.668c0,4.381,3.55,7.938,7.937,7.938h17.996l13.488,128.479
		c0.423,4.043,3.83,7.111,7.895,7.111h148.979c4.062,0,7.472-3.068,7.896-7.111l13.487-128.479h18.001
		c4.381,0,7.938-3.558,7.938-7.938V233.69c-0.002-4.386-3.558-7.937-7.938-7.937H143.043"/>
	<polygon fill="#664A32" points="202.45,435.005 67.763,435.005 55.196,315.289 215.016,315.289 	"/>
	<polygon fill="#684113" points="241.044,299.414 223.832,299.414 46.385,299.414 29.183,299.414 29.183,241.627 241.05,241.627 
		241.05,299.414 	"/>
</g>
<g>
	<ellipse cx="179.77" cy="353.982" rx="14.11" ry="16.462"/>
	<path d="M81,356.333h28.22c2.598,0,4.703-2.105,4.703-4.702c0-2.598-2.105-4.704-4.703-4.704H81c-2.598,0-4.703,2.106-4.703,4.704
		C76.297,354.228,78.402,356.333,81,356.333z"/>
	<path d="M122.621,396.182c0.451,0.726,1.591,2.065,3.403,3.447c3.068,2.342,6.828,3.739,11.416,3.739
		c4.588,0,8.347-1.397,11.417-3.739c1.811-1.382,2.951-2.722,3.402-3.447c1.372-2.206,4.271-2.883,6.479-1.511
		c2.206,1.371,2.883,4.271,1.511,6.478c-1.011,1.626-2.874,3.813-5.687,5.959c-4.637,3.538-10.363,5.668-17.121,5.668
		c-6.757,0-12.484-2.13-17.122-5.668c-2.813-2.146-4.676-4.333-5.687-5.959c-1.372-2.206-0.695-5.106,1.511-6.478
		C118.351,393.299,121.249,393.976,122.621,396.182z"/>
</g>
</svg>
